<?xml version="1.0" standalone="no"?>
<!DOCTYPE svg PUBLIC "-//W3C//DTD SVG 20010904//EN"
 "http://www.w3.org/TR/2001/REC-SVG-20010904/DTD/svg10.dtd">
<svg version="1.0" xmlns="http://www.w3.org/2000/svg"
 width="1080.000000pt" height="1080.000000pt" viewBox="0 0 1080.000000 1080.000000"
 preserveAspectRatio="xMidYMid meet">

<g transform="translate(0.000000,1080.000000) scale(0.100000,-0.100000)"
fill="#000000" stroke="none">
<path d="M6343 9826 c-83 -26 -131 -79 -153 -167 -27 -107 36 -190 224 -294
127 -70 176 -118 176 -171 0 -47 -50 -99 -105 -110 -91 -17 -242 39 -331 121
l-49 46 -27 -31 c-16 -16 -28 -37 -28 -44 0 -23 89 -94 164 -131 233 -115 443
-65 486 114 26 109 -27 182 -202 281 -131 73 -156 92 -180 128 -38 57 -9 133
62 162 70 29 214 -9 309 -81 l54 -41 19 23 c40 51 40 55 2 88 -107 94 -302
144 -421 107z"/>
<path d="M5037 9749 c-57 -13 -91 -34 -130 -80 l-35 -41 -7 46 -7 46 -42 0
c-22 0 -46 -4 -52 -8 -7 -5 1 -101 27 -312 20 -168 38 -307 38 -309 1 -5 100
5 105 10 2 2 -5 72 -15 154 -10 83 -18 173 -18 200 -1 101 61 176 158 191 l43
7 -6 36 c-3 20 -6 44 -6 54 0 19 1 19 -53 6z"/>
<path d="M4292 9618 c-196 -29 -312 -214 -253 -406 40 -132 133 -213 261 -228
129 -15 289 53 343 144 l18 31 -36 24 -36 25 -48 -48 c-53 -53 -120 -80 -196
-80 -73 0 -174 65 -187 120 -2 9 68 32 242 80 281 77 265 64 209 177 -59 122
-176 182 -317 161z m135 -109 c40 -19 93 -79 93 -104 0 -6 -82 -32 -182 -59
-101 -27 -189 -51 -195 -54 -20 -7 -16 76 6 124 44 98 177 142 278 93z"/>
<path d="M6953 9360 c-112 -56 -176 -161 -177 -290 -1 -114 45 -202 139 -264
180 -120 395 -66 484 123 22 48 26 69 26 146 0 104 -16 144 -85 213 -66 66
-139 96 -240 100 -79 3 -90 1 -147 -28z m242 -89 c47 -22 99 -74 114 -114 47
-125 -48 -294 -175 -313 -88 -13 -189 38 -229 117 -53 101 -2 253 103 309 48
25 134 26 187 1z"/>
<path d="M3580 9361 c-88 -27 -160 -87 -196 -164 l-22 -49 -21 41 c-12 22 -24
41 -27 41 -13 0 -84 -41 -84 -49 0 -8 367 -761 374 -769 6 -5 96 42 96 50 0 5
-32 72 -71 149 -51 103 -66 140 -52 134 10 -4 47 -9 83 -12 82 -6 158 20 223
78 135 118 137 321 5 465 -60 66 -124 94 -213 93 -38 0 -81 -4 -95 -8z m155
-110 c88 -40 153 -155 139 -248 -20 -136 -175 -221 -299 -164 -149 67 -182
280 -60 378 67 54 149 67 220 34z"/>
<path d="M5564 9266 c-78 -34 -49 -146 38 -146 45 0 70 27 70 76 0 61 -51 94
-108 70z"/>
<path d="M7863 9240 c-48 -11 -80 -35 -119 -90 -21 -30 -41 -47 -47 -43 -7 3
-25 15 -40 26 -33 23 -46 19 -70 -22 l-18 -30 41 -27 c22 -15 40 -31 40 -36 0
-5 -63 -106 -140 -224 -78 -119 -140 -220 -138 -225 2 -5 22 -21 44 -34 l42
-25 147 225 148 226 26 -17 c14 -10 48 -32 75 -50 l50 -33 23 34 c13 19 23 38
22 42 0 4 -34 29 -75 56 l-75 47 32 45 c54 75 121 78 181 6 15 -17 30 -31 33
-31 12 0 65 41 65 51 0 17 -74 90 -109 108 -46 23 -97 31 -138 21z"/>
<path d="M2884 8946 c-52 -16 -121 -64 -164 -112 -53 -61 -74 -118 -74 -204 0
-94 23 -149 94 -224 67 -71 131 -99 227 -99 95 0 179 39 251 118 64 70 85 131
80 228 -11 211 -215 355 -414 293z m193 -122 c54 -34 108 -112 118 -174 9 -54
-11 -115 -53 -162 -114 -126 -292 -94 -368 67 -28 60 -30 116 -5 171 21 46 91
110 136 124 52 16 121 6 172 -26z"/>
<path d="M8124 8900 c-21 -27 -43 -49 -49 -49 -5 0 -25 13 -44 29 -33 28 -36
29 -54 12 -41 -37 -42 -52 -3 -84 20 -16 36 -33 36 -38 0 -4 -44 -62 -99 -128
-138 -166 -159 -198 -166 -246 -12 -78 37 -156 127 -202 61 -31 84 -31 92 0 3
13 8 31 12 39 4 11 -5 18 -29 26 -37 13 -81 54 -91 86 -9 32 20 80 138 223 93
113 111 130 125 120 9 -7 40 -32 69 -56 52 -44 53 -44 73 -26 45 41 43 49 -26
106 -36 29 -65 58 -64 63 0 6 17 30 39 55 37 42 38 45 22 63 -9 11 -29 28 -43
38 l-26 18 -39 -49z"/>
<path d="M2166 8691 l-40 -41 310 -312 c170 -172 311 -314 314 -316 3 -1 23
15 43 36 l38 39 -313 317 -313 318 -39 -41z"/>
<path d="M8285 8363 c-71 -125 -147 -257 -167 -293 l-38 -67 35 -41 35 -40
237 79 c131 43 241 79 244 79 4 0 -49 -98 -117 -219 -68 -120 -124 -222 -124
-227 1 -5 15 -25 33 -45 l32 -37 314 109 c173 60 316 111 318 112 2 2 -12 20
-29 40 l-33 36 -250 -88 c-137 -48 -252 -86 -254 -85 -2 2 56 105 128 229 72
124 131 232 131 238 0 7 -12 25 -26 41 -31 35 -6 40 -316 -66 -120 -41 -218
-72 -218 -68 0 3 59 106 130 228 72 122 130 225 130 230 0 4 -15 24 -33 44
l-32 38 -130 -227z"/>
<path d="M2145 8211 c-54 -14 -110 -48 -154 -96 -117 -127 -119 -297 -5 -424
133 -147 336 -152 473 -12 66 68 104 148 109 228 l4 63 -48 0 -49 0 -1 -48
c-2 -52 -27 -110 -69 -160 -34 -40 -119 -82 -167 -82 -51 0 -112 25 -102 42 5
7 73 95 151 196 79 100 146 189 149 197 7 18 -74 71 -140 90 -53 16 -102 18
-151 6z m130 -105 c19 -8 35 -18 35 -22 0 -8 -23 -38 -172 -227 l-77 -98 -27
41 c-34 50 -43 129 -22 180 47 111 164 167 263 126z"/>
<path d="M1702 7714 l-23 -46 40 -52 c22 -28 98 -125 169 -216 72 -91 129
-166 127 -168 -3 -3 -401 31 -505 43 l-46 5 -23 -46 c-12 -26 -19 -50 -14 -54
4 -4 136 -17 293 -29 157 -12 306 -24 331 -28 l46 -5 27 47 c14 26 26 51 26
55 0 9 -409 534 -419 538 -4 1 -17 -19 -29 -44z"/>
<path d="M9052 7564 c-19 -29 -21 -38 -10 -44 108 -64 180 -187 158 -271 -10
-37 -68 -99 -93 -99 -7 0 -36 46 -66 103 -30 56 -68 119 -85 141 -33 43 -94
75 -144 76 -71 0 -155 -68 -168 -136 -21 -115 72 -288 168 -309 36 -8 36 -19
-2 -35 -16 -7 -30 -14 -30 -17 0 -4 40 -85 45 -90 6 -9 393 201 421 228 97 94
77 262 -46 402 -38 43 -97 87 -116 87 -5 0 -20 -17 -32 -36z m-193 -205 c18
-7 43 -28 60 -53 30 -44 101 -180 101 -194 0 -14 -69 -42 -106 -42 -86 0 -174
96 -174 190 0 63 15 82 86 110 1 0 15 -5 33 -11z"/>
<path d="M1446 6990 c-154 -62 -238 -276 -166 -425 54 -110 159 -177 293 -183
71 -4 84 -1 142 27 75 37 117 82 158 169 38 82 47 177 22 251 -9 28 -20 51
-25 51 -4 0 -24 -7 -45 -16 -28 -12 -35 -19 -29 -32 4 -9 9 -47 12 -84 3 -56
0 -75 -20 -120 -27 -57 -66 -101 -111 -125 -31 -15 -111 -23 -122 -11 -4 4 29
115 73 248 l81 241 -27 11 c-15 6 -63 12 -107 14 -63 3 -90 0 -129 -16z m150
-97 c-58 -181 -125 -368 -133 -370 -17 -6 -72 46 -93 88 -22 43 -26 109 -9
160 29 84 104 139 192 139 42 0 48 -2 43 -17z"/>
<path d="M9195 6841 c-154 -53 -288 -100 -297 -103 -15 -6 -15 -10 0 -57 9
-28 19 -51 23 -51 4 0 79 25 166 56 114 40 173 56 213 56 84 2 142 -37 175
-116 14 -33 19 -37 40 -32 42 11 75 25 75 33 0 5 -14 31 -30 60 -30 52 -65 83
-116 104 l-29 12 48 15 c52 17 54 24 24 92 l-12 27 -280 -96z"/>
<path d="M9273 6426 c-88 -28 -158 -90 -195 -175 -30 -67 -29 -195 2 -275 21
-54 100 -156 120 -156 4 0 20 16 35 35 l26 36 -29 27 c-92 86 -106 244 -30
336 35 43 87 73 97 57 4 -6 27 -121 51 -255 l44 -245 30 6 c113 21 202 86 245
178 31 64 33 166 6 245 -24 73 -109 159 -179 183 -58 20 -164 21 -223 3z m229
-118 c111 -62 133 -231 42 -321 -28 -28 -83 -62 -89 -55 -3 3 -75 390 -75 403
0 12 84 -7 122 -27z"/>
<path d="M1185 6311 c-133 -33 -237 -134 -285 -277 -17 -51 -73 -453 -64 -463
7 -8 820 -97 824 -90 3 5 16 102 29 216 25 233 22 290 -24 390 -51 113 -139
186 -260 218 -61 16 -167 18 -220 6z m160 -112 c141 -26 228 -113 254 -253 8
-45 7 -90 -5 -200 -9 -77 -17 -142 -19 -144 -3 -4 -619 68 -624 74 -2 2 3 68
12 146 13 104 24 156 43 197 43 96 123 162 217 181 59 11 57 11 122 -1z"/>
<path d="M9130 5358 c0 -7 -11 -141 -25 -298 -14 -157 -25 -288 -25 -292 0 -5
22 -8 49 -8 l50 0 5 53 c4 28 13 135 22 237 9 102 18 187 20 189 5 5 255 -17
262 -24 5 -5 -12 -267 -25 -366 l-5 -46 48 -6 c27 -3 50 -4 50 -4 1 1 10 94
19 207 9 113 19 207 21 209 4 5 246 -17 252 -23 2 -3 -3 -107 -13 -231 -10
-124 -16 -227 -13 -230 3 -4 25 -7 49 -8 l44 -2 24 288 c13 158 22 289 20 291
-2 2 -173 18 -379 35 -206 17 -392 33 -412 36 -27 4 -38 1 -38 -7z"/>
<path d="M1509 4950 c-97 -108 -156 -167 -163 -162 -31 23 -263 189 -275 196
-11 7 -12 -1 -6 -45 4 -30 12 -62 18 -71 7 -10 89 -77 182 -149 94 -72 171
-134 173 -138 1 -4 -120 -29 -270 -55 -150 -26 -274 -49 -276 -51 -8 -8 12
-105 22 -105 18 0 857 148 861 152 3 3 -13 99 -18 104 -1 1 -39 -4 -84 -12
l-83 -15 -70 53 c-38 29 -70 55 -70 58 0 3 54 68 121 144 l121 138 -7 64 c-3
35 -10 64 -15 64 -5 0 -77 -76 -161 -170z"/>
<path d="M9050 4636 c-5 -14 -10 -37 -12 -52 -3 -27 0 -28 97 -56 245 -71 265
-78 305 -114 21 -19 44 -51 51 -71 25 -76 -13 -196 -74 -233 -50 -31 -108 -25
-298 30 -95 28 -179 50 -186 50 -16 0 -43 -93 -29 -101 18 -11 368 -108 412
-115 60 -9 142 18 186 60 80 78 113 233 69 330 l-21 48 23 -6 c12 -3 31 -8 43
-12 18 -5 23 1 34 41 8 27 9 50 4 54 -8 8 -569 171 -587 171 -4 0 -12 -11 -17
-24z"/>
<path d="M1670 4379 c0 -8 -3 -31 -6 -51 -5 -29 -3 -38 7 -38 33 0 91 -53 115
-103 42 -92 27 -194 -38 -254 -57 -54 -180 -81 -249 -55 -105 40 -166 183
-121 285 l20 46 -33 25 c-19 14 -38 26 -44 26 -6 0 -21 -19 -33 -42 -34 -65
-32 -182 6 -264 79 -173 262 -245 428 -167 120 56 188 158 188 282 0 112 -55
228 -135 283 -48 33 -105 48 -105 27z"/>
<path d="M8667 4019 c-87 -57 -161 -162 -197 -278 -24 -76 -25 -122 -4 -184
28 -83 96 -133 394 -287 l265 -138 22 41 c12 23 22 45 23 49 0 4 -19 17 -42
29 -42 22 -42 23 -18 29 151 41 253 241 206 402 -22 77 -86 146 -168 183 -159
72 -320 9 -404 -157 -30 -60 -43 -159 -26 -207 6 -17 8 -31 4 -31 -4 0 -31 14
-59 30 -108 62 -133 150 -77 270 32 67 104 149 155 176 16 8 29 17 29 20 0 9
-45 84 -51 84 -3 0 -27 -14 -52 -31z m431 -255 c80 -33 125 -100 125 -184 0
-124 -104 -240 -217 -240 -37 0 -96 23 -131 52 -99 82 -101 231 -4 327 18 19
47 40 64 47 41 18 118 17 163 -2z"/>
<path d="M1847 3696 c-244 -139 -279 -175 -279 -287 0 -68 31 -145 92 -225 36
-48 120 -114 145 -114 6 0 21 17 33 38 l22 39 -25 11 c-38 17 -104 81 -130
126 -34 59 -41 115 -20 160 17 35 62 76 83 76 6 0 36 -45 68 -101 67 -121 123
-182 181 -199 117 -35 231 62 220 186 -11 113 -119 253 -196 254 l-26 1 23 19
c12 10 28 20 35 23 9 3 6 17 -10 50 -13 26 -26 47 -30 46 -5 0 -88 -47 -186
-103z m166 -100 c66 -28 126 -115 127 -184 0 -24 -8 -42 -29 -63 -38 -37 -87
-39 -128 -5 -30 26 -139 213 -129 223 40 41 104 53 159 29z"/>
<path d="M8437 3258 c-13 -18 -27 -38 -31 -45 -4 -7 83 -76 240 -188 136 -97
252 -179 258 -181 7 -3 26 15 42 39 l31 43 -245 175 c-134 95 -250 177 -257
182 -9 5 -22 -4 -38 -25z"/>
<path d="M2280 3240 l-20 -39 30 -16 c36 -19 70 -70 70 -105 0 -14 -10 -37
-23 -51 -23 -29 -296 -244 -301 -238 -1 2 -26 34 -55 71 -56 72 -64 74 -104
30 -18 -20 -17 -22 32 -85 28 -36 51 -69 51 -73 -1 -5 -23 -26 -50 -47 -54
-42 -54 -43 -7 -100 l23 -28 54 43 53 42 36 -42 36 -43 35 29 34 29 -33 42
c-18 23 -32 43 -30 45 2 1 74 57 160 124 202 156 228 202 178 312 -25 55 -62
96 -111 121 l-38 19 -20 -40z"/>
<path d="M8266 3021 l-37 -38 141 -135 c145 -141 170 -177 170 -245 0 -79 -70
-170 -150 -194 -68 -20 -108 3 -275 161 l-147 140 -37 -42 -37 -41 150 -144
c91 -87 171 -153 200 -168 97 -49 210 -23 293 67 56 61 74 100 81 170 l5 59
31 -30 32 -31 39 40 c23 24 35 43 30 48 -6 5 -102 96 -215 203 -113 107 -212
200 -221 206 -13 10 -22 6 -53 -26z"/>
<path d="M2538 2826 c-84 -31 -137 -93 -145 -170 -7 -62 16 -123 97 -256 100
-164 109 -209 49 -266 -57 -54 -154 -29 -240 63 -52 56 -82 103 -99 156 -6 20
-14 37 -16 37 -17 0 -84 -43 -84 -54 0 -7 14 -42 32 -77 39 -79 152 -195 223
-229 121 -58 238 -30 309 74 20 31 26 51 26 95 0 66 -21 116 -111 262 -67 109
-83 169 -58 215 16 32 58 54 99 54 96 0 237 -143 277 -280 8 -30 17 -56 18
-58 1 -2 22 5 45 14 42 17 42 17 36 57 -11 69 -75 176 -146 247 -105 104 -225
149 -312 116z"/>
<path d="M9072 2833 c-15 -6 -42 -56 -42 -78 0 -25 46 -65 75 -65 35 0 75 42
75 78 0 50 -58 85 -108 65z"/>
<path d="M7648 2431 c-104 -41 -194 -125 -222 -208 -22 -63 -20 -70 12 -77 15
-4 34 -9 43 -12 11 -3 19 7 28 37 30 98 156 185 257 177 50 -4 135 -46 133
-66 0 -4 -92 -72 -204 -152 -112 -80 -204 -150 -205 -156 0 -6 18 -31 39 -55
120 -136 318 -145 449 -21 76 72 97 120 97 222 0 73 -4 93 -28 142 -35 71
-119 150 -183 172 -62 21 -157 20 -216 -3z m321 -252 c18 -51 13 -112 -12
-159 -27 -52 -99 -105 -155 -113 -50 -9 -131 15 -161 47 l-22 24 158 115 c87
63 163 116 170 116 6 1 16 -13 22 -30z"/>
<path d="M2932 2194 c-13 -20 -20 -40 -15 -44 4 -4 63 -46 130 -93 l121 -86
27 41 c15 22 25 41 23 42 -47 36 -250 176 -256 176 -4 0 -18 -16 -30 -36z"/>
<path d="M3291 1831 c-116 -203 -213 -375 -216 -383 -5 -13 59 -58 83 -58 10
0 448 758 441 764 -16 12 -82 46 -89 46 -4 0 -103 -166 -219 -369z"/>
<path d="M7063 2075 c-107 -30 -197 -94 -234 -166 -27 -53 -24 -62 22 -81 40
-17 40 -17 49 6 15 41 71 96 124 123 61 31 153 36 201 11 31 -17 92 -75 84
-82 -2 -2 -105 -52 -229 -111 -124 -59 -226 -108 -228 -110 -7 -7 41 -88 74
-125 112 -124 308 -127 442 -5 64 57 94 129 94 221 0 67 -4 84 -36 149 -39 79
-92 132 -159 160 -55 23 -144 27 -204 10z m293 -291 c32 -126 -84 -253 -221
-242 -58 5 -125 41 -145 78 -10 18 2 26 162 104 95 46 179 85 185 85 7 1 16
-11 19 -25z"/>
<path d="M3751 2018 c-10 -24 -94 -202 -185 -396 -91 -195 -166 -356 -166
-358 0 -2 22 -15 48 -28 l48 -25 188 400 c103 220 186 402 184 403 -6 7 -87
46 -93 46 -3 0 -14 -19 -24 -42z"/>
<path d="M4006 1893 c-55 -172 -166 -537 -166 -548 0 -16 88 -41 99 -29 5 5
30 79 56 164 56 184 73 220 122 257 32 25 45 28 107 28 82 0 127 -21 163 -75
36 -52 30 -103 -33 -308 -31 -100 -55 -185 -52 -187 3 -3 26 -11 52 -19 35
-11 48 -11 52 -3 24 64 115 379 120 416 13 99 -44 194 -145 243 -66 33 -191
37 -245 9 l-38 -20 5 27 c3 15 8 34 12 43 5 13 -4 20 -41 33 -26 9 -49 16 -50
16 -1 0 -9 -21 -18 -47z"/>
<path d="M6566 1874 c-22 -8 -41 -15 -42 -17 -2 -1 19 -74 46 -160 28 -87 53
-175 56 -196 14 -85 -44 -178 -126 -202 -26 -8 -39 -17 -36 -25 3 -7 10 -31
16 -53 l10 -39 39 15 c56 22 111 70 131 116 19 42 21 41 40 -16 10 -34 15 -38
36 -33 37 10 74 25 74 31 0 3 -38 130 -86 283 -47 152 -87 285 -90 295 -6 20
-16 20 -68 1z"/>
<path d="M5854 1716 c-75 -33 -51 -146 30 -146 49 0 80 29 80 74 0 62 -53 96
-110 72z"/>
<path d="M5127 1658 c-4 -18 -12 -88 -18 -155 -7 -68 -16 -128 -19 -134 -6 -8
-62 -5 -209 11 -111 13 -203 21 -205 19 -2 -2 -6 -24 -7 -49 l-4 -45 205 -23
c113 -13 206 -25 208 -27 3 -3 -28 -289 -31 -291 -1 -1 -104 10 -229 24 -126
14 -231 23 -234 19 -4 -3 -9 -25 -11 -49 l-5 -44 288 -31 c159 -17 292 -28
295 -25 3 4 25 188 49 410 48 449 50 422 -26 422 -39 0 -42 -2 -47 -32z"/>
</g>
</svg>
