<?xml version="1.0" encoding="UTF-8"?>
<!DOCTYPE svg PUBLIC "-//W3C//DTD SVG 1.1//EN" "http://www.w3.org/Graphics/SVG/1.1/DTD/svg11.dtd">
<svg xmlns="http://www.w3.org/2000/svg" version="1.1" width="900px" height="512px" style="shape-rendering:geometricPrecision; text-rendering:geometricPrecision; image-rendering:optimizeQuality; fill-rule:evenodd; clip-rule:evenodd" xmlns:xlink="http://www.w3.org/1999/xlink">
<g><path style="opacity:0.004" fill="#e5e6e5" d="M 346.5,9.5 C 347.249,10.531 347.915,11.6976 348.5,13C 347.5,13.6667 346.5,13.6667 345.5,13C 346.337,11.9887 346.67,10.8221 346.5,9.5 Z"/></g>
<g><path style="opacity:0.005" fill="#ececec" d="M 344.5,29.5 C 342.073,27.4924 341.073,24.8257 341.5,21.5C 341.667,19.8333 341.833,18.1667 342,16.5C 343.333,13.8333 344.667,13.8333 346,16.5C 346.942,21.0911 346.442,25.4245 344.5,29.5 Z"/></g>
<g><path style="opacity:0.004" fill="#e6e6e6" d="M 281.5,15.5 C 283.652,17.6071 284.652,20.2738 284.5,23.5C 284.705,26.2285 283.872,28.5618 282,30.5C 278.538,30.017 278.038,28.8504 280.5,27C 279.775,23.1468 280.109,19.3135 281.5,15.5 Z"/></g>
<g><path style="opacity:0.004" fill="#e5e6e5" d="M 461.5,16.5 C 462.833,17.1667 462.833,17.1667 461.5,16.5 Z"/></g>
<g><path style="opacity:0.004" fill="#ebebeb" d="M 582.5,16.5 C 584.635,16.147 585.968,16.9803 586.5,19C 586.165,21.5769 585.165,23.7436 583.5,25.5C 581.215,22.8222 580.882,19.8222 582.5,16.5 Z"/></g>
<g><path style="opacity:0.004" fill="#e9e9e9" d="M 450.5,17.5 C 452.026,18.4919 452.693,19.9919 452.5,22C 452.441,23.4357 452.108,24.769 451.5,26C 453.116,26.6152 454.449,27.6152 455.5,29C 452.898,29.9771 450.398,31.1437 448,32.5C 447.5,32 447,31.5 446.5,31C 448.584,29.4993 449.917,27.4993 450.5,25C 449.873,22.589 449.873,20.089 450.5,17.5 Z"/></g>
<g><path style="opacity:0.004" fill="#e5e6e5" d="M 461.5,21.5 C 463.243,22.6409 464.243,24.3076 464.5,26.5C 464.566,28.2664 463.732,29.2664 462,29.5C 460.268,29.2664 459.434,28.2664 459.5,26.5C 459.902,24.6998 460.569,23.0332 461.5,21.5 Z"/></g>
<g><path style="opacity:0.004" fill="#e5e6e5" d="M 329.5,22.5 C 330.833,23.1667 330.833,23.1667 329.5,22.5 Z"/></g>
<g><path style="opacity:0.004" fill="#e5e6e5" d="M 661.5,24.5 C 662.613,25.9464 662.78,27.6131 662,29.5C 661.506,27.8659 661.34,26.1992 661.5,24.5 Z"/></g>
<g><path style="opacity:0.004" fill="#e5e6e5" d="M 329.5,29.5 C 332.224,27.0617 335.224,26.895 338.5,29C 335.518,29.498 332.518,29.6646 329.5,29.5 Z"/></g>
<g><path style="opacity:0.004" fill="#e5e6e5" d="M 570.5,29.5 C 571.251,28.4265 572.251,28.2599 573.5,29C 572.552,29.4828 571.552,29.6495 570.5,29.5 Z"/></g>
<g><path style="opacity:0.006" fill="#e8e8e8" d="M 329.5,29.5 C 328.971,33.1916 329.971,36.3583 332.5,39C 330.826,40.5059 329.826,42.3393 329.5,44.5C 332.898,44.1796 336.232,44.513 339.5,45.5C 337.942,47.7967 335.942,48.13 333.5,46.5C 331.833,46.8333 330.833,47.8333 330.5,49.5C 332.275,50.9574 334.275,52.1241 336.5,53C 335.421,53.956 334.255,54.7894 333,55.5C 332.383,56.4491 332.549,57.2825 333.5,58C 330.734,58.8129 329.067,60.6462 328.5,63.5C 326.741,64.754 325.241,64.4206 324,62.5C 323,63.5 322,64.5 321,65.5C 321.066,68.578 320.899,71.578 320.5,74.5C 317.533,76.0044 314.533,76.3378 311.5,75.5C 313.1,70.4762 314.1,65.3095 314.5,60C 319.316,59.9084 323.982,59.7417 328.5,59.5C 329.18,54.7869 329.18,50.1202 328.5,45.5C 324.235,44.5614 319.902,44.2281 315.5,44.5C 315.052,48.6948 314.886,53.0281 315,57.5C 311.869,59.1657 310.369,58.1657 310.5,54.5C 311.526,51.9602 311.526,49.4602 310.5,47C 311.765,45.3437 313.099,43.677 314.5,42C 313.576,37.9012 313.576,33.7346 314.5,29.5C 316.674,29.9202 318.674,29.9202 320.5,29.5C 322.134,29.968 323.3,30.968 324,32.5C 324.928,29.9648 326.762,28.9648 329.5,29.5 Z"/></g>
<g><path style="opacity:0.006" fill="#e8e8e8" d="M 344.5,29.5 C 348.106,29.2108 351.606,29.5442 355,30.5C 360.213,27.7376 361.713,23.571 359.5,18C 360.5,16 361.5,16 362.5,18C 360.897,21.218 361.397,24.0513 364,26.5C 366.072,20.0457 367.739,20.0457 369,26.5C 369.333,23.1667 369.667,19.8333 370,16.5C 371.333,13.8333 372.667,13.8333 374,16.5C 374.499,21.1548 374.666,25.8215 374.5,30.5C 369.833,29.1667 365.167,29.1667 360.5,30.5C 362.658,42.6727 357.658,47.3394 345.5,44.5C 344.787,47.2371 344.787,49.9037 345.5,52.5C 345.192,53.3081 344.692,53.9747 344,54.5C 344.015,51.8038 343.182,49.1371 341.5,46.5C 341.833,45.5 342.5,44.8333 343.5,44.5C 344.494,39.544 344.827,34.544 344.5,29.5 Z M 354.5,37.5 C 355.234,38.8775 355.901,40.3775 356.5,42C 355.5,42.6667 354.5,42.6667 353.5,42C 354.38,40.6439 354.714,39.1439 354.5,37.5 Z"/></g>
<g><path style="opacity:0.004" fill="#e5e6e5" d="M 365.5,20.5 C 365.897,19.475 366.563,19.3083 367.5,20C 366.906,20.4643 366.239,20.631 365.5,20.5 Z"/></g>
<g><path style="opacity:0.006" fill="#e9e9e9" d="M 433.5,14.5 C 435.285,14.9256 436.285,16.0922 436.5,18C 436.769,30.0608 431.269,33.8941 420,29.5C 419.501,34.4889 419.334,39.4889 419.5,44.5C 414.5,44.5 409.5,44.5 404.5,44.5C 403.836,39.5275 403.503,34.5275 403.5,29.5C 399.215,30.2949 394.881,30.6282 390.5,30.5C 392.092,34.4602 391.592,38.1269 389,41.5C 387.092,40.1815 386.258,38.3482 386.5,36C 388.767,30.1092 390.267,23.9425 391,17.5C 392.016,16.3659 392.683,16.6992 393,18.5C 393.92,21.1013 394.587,23.7679 395,26.5C 395.196,24.7139 396.029,23.3805 397.5,22.5C 399.394,23.6011 400.061,24.9345 399.5,26.5C 400.167,23.1667 400.833,19.8333 401.5,16.5C 402.72,15.2889 403.887,15.2889 405,16.5C 405.796,20.7548 405.629,24.9215 404.5,29C 407.758,29.2117 410.924,29.7117 414,30.5C 415.399,29.7734 416.899,29.2734 418.5,29C 419.126,28.2496 419.626,27.4162 420,26.5C 424.105,26.2991 428.272,26.6324 432.5,27.5C 432.251,24.9979 431.917,22.4979 431.5,20C 431.395,17.8218 432.061,15.9885 433.5,14.5 Z M 412.5,32.5 C 413.077,31.2267 413.743,31.2267 414.5,32.5C 414.03,33.463 413.363,33.463 412.5,32.5 Z M 413.5,36.5 C 414.461,38.2646 414.795,40.2646 414.5,42.5C 413.448,42.6495 412.448,42.4828 411.5,42C 413.155,40.5557 413.822,38.7224 413.5,36.5 Z"/></g>
<g><path style="opacity:0.006" fill="#e7e7e7" d="M 435.5,29.5 C 436.822,29.33 437.989,29.6634 439,30.5C 439.499,35.1548 439.666,39.8215 439.5,44.5C 436.14,43.7904 434.307,45.1238 434,48.5C 434.027,42.1175 434.527,35.7841 435.5,29.5 Z"/></g>
<g><path style="opacity:0.004" fill="#e5e6e5" d="M 585.5,29.5 C 590.367,30.1676 590.534,31.1676 586,32.5C 584.272,31.6477 584.105,30.6477 585.5,29.5 Z"/></g>
<g><path style="opacity:0.006" fill="#e9e9e9" d="M 629.5,43.5 C 624.518,44.0534 619.518,44.3867 614.5,44.5C 614.5,39.8333 614.5,35.1667 614.5,30.5C 609.489,30.6659 604.489,30.4993 599.5,30C 599.167,29.6667 598.833,29.3333 598.5,29C 599.282,26.2595 599.782,23.4262 600,20.5C 600.497,22.8098 600.663,25.1432 600.5,27.5C 604.167,27.5 607.833,27.5 611.5,27.5C 612.609,24.2672 613.442,20.9338 614,17.5C 615.739,21.3109 616.572,25.3109 616.5,29.5C 623.415,32.4012 628.248,30.4012 631,23.5C 632.577,26.6754 634.41,27.0088 636.5,24.5C 637.478,24.9767 638.311,25.6433 639,26.5C 639.333,23.8333 639.667,21.1667 640,18.5C 640.953,16.4078 642.286,16.0745 644,17.5C 644.667,21.5 644.667,25.5 644,29.5C 639.599,30.4667 635.099,30.8 630.5,30.5C 630.769,34.9315 630.436,39.2648 629.5,43.5 Z M 622.5,32.5 C 623.386,31.2241 624.386,31.2241 625.5,32.5C 624.767,33.087 623.767,33.087 622.5,32.5 Z M 624.5,40.5 C 625.773,41.0768 625.773,41.7435 624.5,42.5C 623.537,42.0302 623.537,41.3635 624.5,40.5 Z"/></g>
<g><path style="opacity:0.004" fill="#e5e6e5" d="M 236.5,30.5 C 239.926,34.7343 240.259,39.401 237.5,44.5C 235.753,42.956 234.753,40.956 234.5,38.5C 235.171,35.8151 235.838,33.1484 236.5,30.5 Z"/></g>
<g><path style="opacity:0.004" fill="#e5e6e5" d="M 686.5,30.5 C 687.833,31.1667 687.833,31.1667 686.5,30.5 Z"/></g>
<g><path style="opacity:0.004" fill="#e9e9e9" d="M 658.5,31.5 C 659.695,31.8656 660.361,32.699 660.5,34C 659.873,36.1351 659.373,38.3018 659,40.5C 657.643,37.4725 657.476,34.4725 658.5,31.5 Z"/></g>
<g><path style="opacity:0.004" fill="#e5e6e5" d="M 686.5,32.5 C 688.086,34.0808 689.086,36.0808 689.5,38.5C 688.391,40.3853 687.557,42.3853 687,44.5C 686.5,44 686,43.5 685.5,43C 685.257,39.6101 685.591,36.1101 686.5,32.5 Z"/></g>
<g><path style="opacity:0.004" fill="#e5e6e5" d="M 652.5,34.5 C 652.897,33.475 653.563,33.3083 654.5,34C 653.906,34.4643 653.239,34.631 652.5,34.5 Z"/></g>
<g><path style="opacity:0.004" fill="#e5e6e5" d="M 381.5,34.5 C 382.833,34.5 384.167,34.5 385.5,34.5C 386.167,38.5 384.5,40.1667 380.5,39.5C 380.366,37.7085 380.699,36.0418 381.5,34.5 Z"/></g>
<g><path style="opacity:0.004" fill="#e5e6e5" d="M 374.5,35.5 C 375.598,36.6009 375.765,37.9343 375,39.5C 374.51,38.2068 374.343,36.8734 374.5,35.5 Z"/></g>
<g><path style="opacity:0.004" fill="#e7e7e7" d="M 373.5,44.5 C 373.685,42.1104 375.018,41.1104 377.5,41.5C 380.826,42.0466 384.16,42.5466 387.5,43C 383.028,44.4366 378.361,44.9366 373.5,44.5 Z"/></g>
<g><path style="opacity:0.004" fill="#e5e6e5" d="M 447.5,41.5 C 448.525,41.8966 448.692,42.5632 448,43.5C 447.536,42.9056 447.369,42.2389 447.5,41.5 Z"/></g>
<g><path style="opacity:0.004" fill="#e5e6e5" d="M 373.5,44.5 C 374.32,49.279 373.82,53.9457 372,58.5C 370.878,55.103 370.044,51.603 369.5,48C 370.103,45.9286 371.436,44.7619 373.5,44.5 Z"/></g>
<g><path style="opacity:0.006" fill="#e6e6e6" d="M 390.5,44.5 C 391.822,44.33 392.989,44.6634 394,45.5C 394.373,47.6982 394.873,49.8649 395.5,52C 394.873,54.1351 394.373,56.3018 394,58.5C 392.667,59.8333 391.333,59.8333 390,58.5C 389.227,53.7481 389.393,49.0815 390.5,44.5 Z"/></g>
<g><path style="opacity:0.004" fill="#e6e6e6" d="M 402.5,44.5 C 404.647,45.9321 404.98,47.7655 403.5,50C 406.324,52.1409 406.158,53.9743 403,55.5C 401.72,55.3865 400.887,54.7199 400.5,53.5C 402.13,50.7239 402.797,47.7239 402.5,44.5 Z"/></g>
<g><path style="opacity:0.004" fill="#e8e8e8" d="M 629.5,43.5 C 631.89,43.9126 634.223,44.5793 636.5,45.5C 635.385,46.5984 635.385,47.7651 636.5,49C 635.277,50.7201 634.277,52.5534 633.5,54.5C 634.01,56.0879 635.01,57.2545 636.5,58C 633.511,61.4447 630.844,61.2781 628.5,57.5C 629.396,52.6866 629.73,48.02 629.5,43.5 Z"/></g>
<g><path style="opacity:0.004" fill="#e6e6e6" d="M 644.5,30.5 C 645.298,33.1711 645.965,36.0044 646.5,39C 646.355,39.772 646.022,40.4387 645.5,41C 655.874,42.8593 655.54,44.3593 644.5,45.5C 644.379,48.0018 644.212,50.6685 644,53.5C 643.261,55.2205 642.427,56.8872 641.5,58.5C 640.81,54.1766 640.476,49.5099 640.5,44.5C 642.124,44.6399 643.29,43.9733 644,42.5C 644.499,38.5138 644.666,34.5138 644.5,30.5 Z"/></g>
<g><path style="opacity:0.005" fill="#e8e8e8" d="M 660.5,44.5 C 661.822,44.33 662.989,44.6634 664,45.5C 664.789,49.0915 664.622,52.5915 663.5,56C 664.167,56.6667 664.833,57.3333 665.5,58C 662.667,59.5 660.5,61.6667 659,64.5C 658.5,63.5 658,62.5 657.5,61.5C 658.782,59.8208 659.782,57.9874 660.5,56C 659.2,52.1675 659.2,48.3342 660.5,44.5 Z"/></g>
<g><path style="opacity:0.004" fill="#e5e6e5" d="M 360.5,46.5 C 362.857,46.3367 365.19,46.5034 367.5,47C 368.668,48.8709 368.168,50.3709 366,51.5C 365.654,53.2182 365.154,54.8849 364.5,56.5C 365.34,58.2838 364.507,59.2838 362,59.5C 361.228,59.3552 360.561,59.0219 360,58.5C 359.503,54.4761 359.669,50.4761 360.5,46.5 Z"/></g>
<g><path style="opacity:0.004" fill="#e9e9e9" d="M 419.5,46.5 C 421.924,48.2276 422.09,50.2276 420,52.5C 418.204,50.5983 418.037,48.5983 419.5,46.5 Z"/></g>
<g><path style="opacity:0.004" fill="#e5e6e5" d="M 672.5,46.5 C 674.499,49.3577 674.665,52.3577 673,55.5C 672.167,54.6667 671.333,53.8333 670.5,53C 671.397,50.9129 672.064,48.7463 672.5,46.5 Z"/></g>
<g><path style="opacity:0.004" fill="#e5e6e5" d="M 666.5,48.5 C 668.185,49.1837 669.185,50.517 669.5,52.5C 669.167,53.5 668.5,54.1667 667.5,54.5C 666.534,52.604 666.201,50.604 666.5,48.5 Z"/></g>
<g><path style="opacity:0.004" fill="#e5e6e5" d="M 731.5,51.5 C 733.852,52.5426 734.019,53.8759 732,55.5C 730.666,54.1221 730.499,52.7887 731.5,51.5 Z"/></g>
<g><path style="opacity:0.004" fill="#e5e6e5" d="M 191.5,52.5 C 193.924,54.2276 194.09,56.2276 192,58.5C 190.311,56.6804 190.145,54.6804 191.5,52.5 Z"/></g>
<g><path style="opacity:0.004" fill="#e5e6e5" d="M 703.5,53.5 C 704.451,54.9187 704.784,56.5853 704.5,58.5C 699.771,59.0156 695.104,59.0156 690.5,58.5C 692.003,57.443 693.67,56.7763 695.5,56.5C 697.801,57.3958 700.134,57.5625 702.5,57C 703.337,55.9887 703.67,54.8221 703.5,53.5 Z"/></g>
<g><path style="opacity:0.988" fill="#000000" d="M 369.5,355.5 C 369.5,355.167 369.5,354.833 369.5,354.5C 390.962,304.566 411.628,254.232 431.5,203.5C 435.962,194.898 439.629,185.898 442.5,176.5C 456.207,144.88 469.374,112.88 482,80.5C 485.107,74.6079 488.941,69.2746 493.5,64.5C 516.229,52.357 534.062,57.357 547,79.5C 549.02,86.2365 549.353,92.9032 548,99.5C 503.727,209.649 459.061,319.649 414,429.5C 406.077,447.878 392.244,455.378 372.5,452C 353.133,444.765 344.967,430.932 348,410.5C 355.161,392.175 362.328,373.842 369.5,355.5 Z"/></g>
<g><path style="opacity:0.006" fill="#e8e8e8" d="M 346.5,59.5 C 347.15,59.8039 347.817,60.1373 348.5,60.5C 349.294,64.7848 349.627,68.9514 349.5,73C 347.869,74.9262 346.035,76.7596 344,78.5C 343.5,77.5 343,76.5 342.5,75.5C 343.836,70.0977 345.169,64.7644 346.5,59.5 Z"/></g>
<g><path style="opacity:0.004" fill="#eaeaea" d="M 388.5,59.5 C 390.942,61.1393 391.109,63.1393 389,65.5C 387.388,63.5442 387.222,61.5442 388.5,59.5 Z"/></g>
<g><path style="opacity:0.004" fill="#e8e8e8" d="M 405.5,59.5 C 408.699,60.3627 409.032,62.196 406.5,65C 406.735,67.3517 406.901,69.8517 407,72.5C 408.701,74.024 408.201,75.024 405.5,75.5C 404.692,75.1924 404.025,74.6924 403.5,74C 404.804,73.196 405.471,72.0293 405.5,70.5C 405.485,66.8106 405.485,63.144 405.5,59.5 Z"/></g>
<g><path style="opacity:0.005" fill="#e9e9e9" d="M 675.5,59.5 C 683.827,60.8237 685.494,64.8237 680.5,71.5C 681.668,73.2174 683.335,73.8841 685.5,73.5C 684.366,69.164 684.366,64.8307 685.5,60.5C 686.72,59.2889 687.887,59.2889 689,60.5C 689.648,65.2041 689.481,69.8708 688.5,74.5C 690.429,74.2308 692.095,74.7308 693.5,76C 689.345,74.938 685.012,74.6047 680.5,75C 677.584,75.0488 676.584,76.2155 677.5,78.5C 676.965,80.2705 676.131,80.6039 675,79.5C 674.56,77.9238 673.727,76.5904 672.5,75.5C 674.76,72.1847 675.093,68.6847 673.5,65C 673.698,62.8794 674.364,61.0461 675.5,59.5 Z"/></g>
<g><path style="opacity:0.004" fill="#e5e6e5" d="M 644.5,60.5 C 645.239,60.369 645.906,60.5357 646.5,61C 645.118,65.7055 644.451,65.5388 644.5,60.5 Z"/></g>
<g><path style="opacity:0.004" fill="#e9e9e9" d="M 717.5,60.5 C 718.965,61.4057 719.965,62.739 720.5,64.5C 720.12,66.0207 719.954,67.6874 720,69.5C 717.833,71 716.333,70.5 715.5,68C 715.011,65.3941 715.678,62.8941 717.5,60.5 Z"/></g>
<g><path style="opacity:0.004" fill="#e5e6e5" d="M 177.5,62.5 C 179.026,63.4919 179.693,64.9919 179.5,67C 178.773,72.5959 177.773,72.7626 176.5,67.5C 176.728,65.7927 177.062,64.126 177.5,62.5 Z"/></g>
<g><path style="opacity:0.004" fill="#eaeaea" d="M 374.5,63.5 C 375.117,63.6107 375.617,63.944 376,64.5C 376.679,67.5499 377.512,70.5499 378.5,73.5C 376.328,74.2048 374.328,75.2048 372.5,76.5C 372.167,76.1667 371.833,75.8333 371.5,75.5C 373.221,71.719 374.221,67.719 374.5,63.5 Z"/></g>
<g><path style="opacity:0.004" fill="#e5e6e5" d="M 710.5,63.5 C 711.5,63.5 712.5,63.5 713.5,63.5C 713.098,72.6975 712.098,72.6975 710.5,63.5 Z"/></g>
<g><path style="opacity:0.004" fill="#e5e6e5" d="M 267.5,66.5 C 269.787,68.6603 269.954,70.9936 268,73.5C 266.193,71.294 266.026,68.9606 267.5,66.5 Z"/></g>
<g><path style="opacity:0.004" fill="#e5e6e5" d="M 326.5,66.5 C 329.487,68.1085 330.154,70.4418 328.5,73.5C 327.311,74.4287 325.978,74.762 324.5,74.5C 324.283,71.5794 324.949,68.9128 326.5,66.5 Z"/></g>
<g><path style="opacity:0.004" fill="#ebebeb" d="M 284.5,67.5 C 286.148,69.4293 287.815,71.4293 289.5,73.5C 287.207,75.2299 284.707,76.5633 282,77.5C 280.015,75.7651 280.349,74.4317 283,73.5C 283.813,71.5643 284.313,69.5643 284.5,67.5 Z"/></g>
<g><path style="opacity:0.004" fill="#eaeaea" d="M 644.5,70.5 C 647.459,73.2714 647.126,74.2714 643.5,73.5C 644.127,72.5832 644.461,71.5832 644.5,70.5 Z"/></g>
<g><path style="opacity:0.006" fill="#eaeaea" d="M 254.5,59.5 C 258.954,59.7242 263.288,59.7242 267.5,59.5C 268.43,54.8628 269.097,50.1962 269.5,45.5C 272.583,44.9338 275.583,44.9338 278.5,45.5C 281.94,43.9005 285.274,42.0671 288.5,40C 289.687,37.2257 291.02,34.559 292.5,32C 290.167,31.6667 287.833,31.3333 285.5,31C 290.198,30.6489 294.864,30.1489 299.5,29.5C 299.234,25.3951 299.734,21.3951 301,17.5C 301.667,16.1667 302.333,16.1667 303,17.5C 303.667,20.1667 304.333,22.8333 305,25.5C 305.833,24.5 306.667,23.5 307.5,22.5C 308.5,23.8333 309.5,25.1667 310.5,26.5C 311.487,23.2317 311.82,19.8984 311.5,16.5C 313.59,16.4501 314.923,17.4501 315.5,19.5C 314.756,22.443 314.256,25.443 314,28.5C 310.043,30.2194 305.876,30.886 301.5,30.5C 301.772,34.9017 301.439,39.2351 300.5,43.5C 303.326,44.5796 306.159,45.5796 309,46.5C 308.798,49.2282 308.964,51.8948 309.5,54.5C 307.665,55.4277 307.332,56.5944 308.5,58C 305.99,58.3763 303.657,59.2096 301.5,60.5C 300.738,64.1111 300.238,67.7778 300,71.5C 299.586,71.9574 299.086,72.2907 298.5,72.5C 297.803,68.6229 297.136,64.7896 296.5,61C 297.025,60.3076 297.692,59.8076 298.5,59.5C 299.494,54.544 299.827,49.544 299.5,44.5C 294.5,44.5 289.5,44.5 284.5,44.5C 284.666,49.1785 284.499,53.8452 284,58.5C 280.176,58.1079 276.342,58.6079 272.5,60C 270.895,61.3603 269.395,62.8603 268,64.5C 265.928,61.8463 264.261,62.1796 263,65.5C 262.587,68.2321 261.92,70.8987 261,73.5C 259.89,75.0368 258.39,75.7035 256.5,75.5C 256.822,79.747 255.989,83.747 254,87.5C 252.096,84.0769 251.263,80.4102 251.5,76.5C 247.939,76.592 244.272,76.9253 240.5,77.5C 242.381,78.762 243.714,80.4287 244.5,82.5C 242.839,84.4881 241.672,86.8214 241,89.5C 238.736,92.624 236.57,92.7906 234.5,90C 237.383,89.1314 238.716,87.1314 238.5,84C 238.615,81.9579 238.949,79.9579 239.5,78C 239.095,77.0546 238.428,76.3879 237.5,76C 234.167,75.3333 230.833,75.3333 227.5,76C 226.473,80.6927 224.973,85.1927 223,89.5C 222.25,88.8742 221.416,88.3742 220.5,88C 220.314,86.1335 220.647,84.1335 221.5,82C 220.922,80.1886 220.422,78.3553 220,76.5C 219.737,79.264 218.237,80.9306 215.5,81.5C 214.534,83.396 214.201,85.396 214.5,87.5C 215.552,87.3505 216.552,87.5172 217.5,88C 212.792,88.888 209.958,91.7213 209,96.5C 208.358,94.2381 207.525,92.0715 206.5,90C 207.333,89.1667 208.167,88.3333 209,87.5C 209.499,83.5138 209.666,79.5138 209.5,75.5C 203.979,75.0543 198.645,75.5543 193.5,77C 195.725,77.8759 197.725,79.0426 199.5,80.5C 198.557,83.4001 196.89,85.7334 194.5,87.5C 197.64,88.0905 200.64,88.9239 203.5,90C 201.782,90.346 200.115,90.846 198.5,91.5C 197.185,93.769 196.018,96.1023 195,98.5C 193.701,95.9938 192.701,93.3272 192,90.5C 188.634,89.0048 185.468,89.3382 182.5,91.5C 183.311,92.2164 183.978,93.0497 184.5,94C 183.922,95.8114 183.422,97.6447 183,99.5C 182.282,100.451 181.449,100.617 180.5,100C 179.549,96.9433 179.216,93.7766 179.5,90.5C 176.664,90.7978 176.164,90.1311 178,88.5C 178.226,84.1126 178.726,79.7793 179.5,75.5C 184.12,74.5067 188.786,74.1734 193.5,74.5C 193.334,70.1539 193.501,65.8206 194,61.5C 198.801,60.8084 203.635,60.1418 208.5,59.5C 209.958,57.8615 210.292,56.1949 209.5,54.5C 210.014,51.3557 210.847,48.3557 212,45.5C 213.577,49.2826 214.411,53.2826 214.5,57.5C 221.374,58.1127 223.374,55.1127 220.5,48.5C 222.103,43.6631 223.769,43.4965 225.5,48C 224.544,51.3936 224.211,54.8936 224.5,58.5C 220.429,58.2338 216.429,58.5672 212.5,59.5C 211.198,64.385 211.198,69.2183 212.5,74C 215.833,74.6667 219.167,74.6667 222.5,74C 223.303,69.5855 223.803,65.0855 224,60.5C 228.667,59.8333 233.333,59.1667 238,58.5C 238.499,54.1794 238.666,49.8461 238.5,45.5C 242.767,45.203 246.934,45.5363 251,46.5C 251.689,45.6433 252.522,44.9767 253.5,44.5C 254.325,40.8776 254.825,37.211 255,33.5C 256.333,28.1667 257.667,28.1667 259,33.5C 259.498,36.4816 259.665,39.4816 259.5,42.5C 261.924,42.8076 264.257,42.4742 266.5,41.5C 266.01,39.098 265.676,36.7646 265.5,34.5C 266.896,28.2298 268.563,28.0631 270.5,34C 269.305,35.5325 269.305,37.0325 270.5,38.5C 269.926,40.0589 269.26,41.5589 268.5,43C 264.152,43.5735 259.819,44.2401 255.5,45C 255.657,48.4614 255.991,51.9614 256.5,55.5C 255.82,56.8599 255.153,58.1932 254.5,59.5 Z M 202.5,61.5 C 205.656,61.5291 207.322,63.1957 207.5,66.5C 206.691,68.0709 206.357,69.7376 206.5,71.5C 205.448,71.6495 204.448,71.4828 203.5,71C 201.954,68.7432 200.288,66.5765 198.5,64.5C 199.624,63.1408 200.958,62.1408 202.5,61.5 Z M 254.5,59.5 C 254.666,63.8461 254.499,68.1794 254,72.5C 253.5,73 253,73.5 252.5,74C 248.022,74.8248 243.689,74.9914 239.5,74.5C 240.014,72.3016 241.014,70.3016 242.5,68.5C 240.969,67.3869 239.969,65.8869 239.5,64C 239.354,61.8121 240.354,60.4788 242.5,60C 246.486,59.5012 250.486,59.3345 254.5,59.5 Z M 278.5,52.5 C 279.788,54.0348 279.788,55.7015 278.5,57.5C 277.692,57.1924 277.025,56.6924 276.5,56C 277.823,55.1841 278.489,54.0174 278.5,52.5 Z M 243.5,47.5 C 246.368,48.0168 249.034,48.3501 251.5,48.5C 252.516,51.1337 252.516,53.8004 251.5,56.5C 248.413,56.2535 245.58,55.2535 243,53.5C 242.322,51.4024 242.489,49.4024 243.5,47.5 Z M 187.5,76.5 C 191.195,75.8738 192.029,76.8738 190,79.5C 189.503,82.146 189.336,84.8127 189.5,87.5C 187.345,87.628 185.345,87.128 183.5,86C 186.751,83.368 188.084,80.2013 187.5,76.5 Z"/></g>
<g><path style="opacity:0.004" fill="#e5e6e5" d="M 261.5,32.5 C 262.995,32.4148 263.995,33.0815 264.5,34.5C 263.282,42.8043 261.948,43.1376 260.5,35.5C 260.685,34.4163 261.018,33.4163 261.5,32.5 Z"/></g>
<g><path style="opacity:0.004" fill="#e5e6e5" d="M 306.5,18.5 C 308.465,18.9483 308.798,19.9483 307.5,21.5C 306.614,20.675 306.281,19.675 306.5,18.5 Z"/></g>
<g><path style="opacity:0.004" fill="#e5e6e5" d="M 300.5,74.5 C 301.675,74.281 302.675,74.6143 303.5,75.5C 302.193,80.5145 301.193,80.1812 300.5,74.5 Z"/></g>
<g><path style="opacity:0.004" fill="#e5e6e5" d="M 359.5,74.5 C 361.103,74.3118 362.437,74.8118 363.5,76C 362.914,78.2798 362.08,80.4465 361,82.5C 359.857,79.873 359.357,77.2063 359.5,74.5 Z"/></g>
<g><path style="opacity:0.004" fill="#e7e7e7" d="M 629.5,74.5 C 631.103,74.3118 632.437,74.8118 633.5,76C 631.602,76.6401 631.268,77.9734 632.5,80C 631.611,84.2826 630.277,84.4493 628.5,80.5C 630.229,78.5557 630.562,76.5557 629.5,74.5 Z"/></g>
<g><path style="opacity:0.005" fill="#e6e6e6" d="M 661.5,73.5 C 662.973,74.072 664.307,74.9054 665.5,76C 663.959,77.5793 662.792,79.4127 662,81.5C 659.419,78.7384 659.252,76.0718 661.5,73.5 Z"/></g>
<g><path style="opacity:0.004" fill="#eeeeee" d="M 705.5,59.5 C 707.564,59.687 709.564,60.187 711.5,61C 708.922,64.8802 708.922,68.8802 711.5,73C 710.381,74.876 708.714,75.7093 706.5,75.5C 706.628,79.8814 706.295,84.2147 705.5,88.5C 707.927,88.523 710.26,89.023 712.5,90C 711.667,90.8333 710.833,91.6667 710,92.5C 709.667,96.5 709.333,100.5 709,104.5C 707.414,105.376 705.914,106.376 704.5,107.5C 702.199,106.731 702.033,105.731 704,104.5C 704.551,95.8793 703.718,87.3793 701.5,79C 703.802,72.7296 705.136,66.2296 705.5,59.5 Z"/></g>
<g><path style="opacity:0.006" fill="#e9e9e9" d="M 730.5,74.5 C 731.978,74.238 733.311,74.5713 734.5,75.5C 734.291,76.086 733.957,76.586 733.5,77C 733.977,79.899 734.977,82.5657 736.5,85C 735.643,85.6891 734.977,86.5224 734.5,87.5C 738.192,88.2525 741.858,89.0858 745.5,90C 743.231,92.0229 740.564,92.8563 737.5,92.5C 737.846,95.6021 737.179,98.4355 735.5,101C 738.167,101.667 740.833,102.333 743.5,103C 739.833,104.104 736.5,105.771 733.5,108C 730.866,108.925 729.699,108.091 730,105.5C 731.067,104.809 732.234,104.309 733.5,104C 734.059,103.275 734.392,102.442 734.5,101.5C 733.616,97.5271 732.949,93.5271 732.5,89.5C 728.445,89.8242 724.445,89.4909 720.5,88.5C 725.036,86.6026 726.369,83.4359 724.5,79C 725.448,78.5172 726.448,78.3505 727.5,78.5C 727.231,80.4286 727.731,82.0953 729,83.5C 729.554,80.1731 730.054,77.1731 730.5,74.5 Z"/></g>
<g><path style="opacity:0.004" fill="#e5e6e5" d="M 270.5,75.5 C 271.833,76.1667 271.833,76.1667 270.5,75.5 Z"/></g>
<g><path style="opacity:0.004" fill="#e5e6e5" d="M 391.5,75.5 C 393.326,77.4368 393.493,79.4368 392,81.5C 391.308,80.9747 390.808,80.3081 390.5,79.5C 391.246,78.2638 391.579,76.9305 391.5,75.5 Z"/></g>
<g><path style="opacity:0.004" fill="#e5e6e5" d="M 720.5,75.5 C 721.239,75.369 721.906,75.5357 722.5,76C 722.941,78.4533 722.441,80.9533 721,83.5C 719.39,80.872 719.223,78.2053 720.5,75.5 Z"/></g>
<g><path style="opacity:0.004" fill="#e7e7e7" d="M 270.5,77.5 C 274.481,79.7933 274.481,82.1266 270.5,84.5C 268.105,82.2413 268.105,79.908 270.5,77.5 Z"/></g>
<g><path style="opacity:0.004" fill="#e5e6e5" d="M 749.5,89.5 C 749.936,85.3571 750.77,81.3571 752,77.5C 753.405,80.6188 753.905,83.9521 753.5,87.5C 755.199,87.3398 756.866,87.5065 758.5,88C 755.568,88.9533 752.568,89.4533 749.5,89.5 Z"/></g>
<g><path style="opacity:0.004" fill="#e5e6e5" d="M 689.5,78.5 C 690.598,79.6009 690.765,80.9343 690,82.5C 689.51,81.2068 689.343,79.8734 689.5,78.5 Z"/></g>
<g><path style="opacity:0.004" fill="#e5e6e5" d="M 247.5,80.5 C 248.833,81.1667 248.833,81.1667 247.5,80.5 Z"/></g>
<g><path style="opacity:0.004" fill="#fafafa" d="M 136.5,86.5 C 138.827,86.2471 140.827,86.9137 142.5,88.5C 139.043,89.436 136.043,91.1027 133.5,93.5C 133.167,92.8333 132.833,92.1667 132.5,91.5C 133.823,89.8349 135.156,88.1683 136.5,86.5 Z"/></g>
<g><path style="opacity:0.004" fill="#e7e7e7" d="M 689.5,86.5 C 691.564,86.687 693.564,87.187 695.5,88C 692.694,89.561 689.694,90.2277 686.5,90C 687.71,88.9609 688.71,87.7942 689.5,86.5 Z"/></g>
<g><path style="opacity:0.004" fill="#e5e6e5" d="M 270.5,87.5 C 271.833,88.1667 271.833,88.1667 270.5,87.5 Z"/></g>
<g><path style="opacity:0.004" fill="#e5e6e5" d="M 301.5,87.5 C 302.833,88.1667 302.833,88.1667 301.5,87.5 Z"/></g>
<g><path style="opacity:0.004" fill="#fefffe" d="M 121.5,89.5 C 122.873,89.3433 124.207,89.51 125.5,90C 124.069,90.4652 122.903,91.2986 122,92.5C 121.517,91.552 121.351,90.552 121.5,89.5 Z"/></g>
<g><path style="opacity:0.004" fill="#f8f8f8" d="M 166.5,71.5 C 170.558,73.544 170.225,75.044 165.5,76C 168.044,79.7848 168.044,83.6181 165.5,87.5C 167.695,88.7691 169.861,88.7691 172,87.5C 172.692,88.0253 173.192,88.6919 173.5,89.5C 171.611,90.604 169.945,91.9373 168.5,93.5C 169.048,97.5078 169.381,101.508 169.5,105.5C 169.281,106.938 168.781,108.271 168,109.5C 167.282,110.451 166.449,110.617 165.5,110C 164.181,107.715 162.681,105.548 161,103.5C 157.901,104.455 154.734,105.289 151.5,106C 150.257,107.87 149.59,110.036 149.5,112.5C 149.532,114.759 149.866,116.925 150.5,119C 148.044,119.946 146.044,119.446 144.5,117.5C 145.198,114.229 145.198,110.896 144.5,107.5C 143.178,107.33 142.011,107.663 141,108.5C 140.433,111.168 139.933,113.834 139.5,116.5C 137.089,116.863 135.589,115.863 135,113.5C 134.502,110.518 134.335,107.518 134.5,104.5C 132.692,104.509 131.025,104.009 129.5,103C 130.636,100.223 132.136,97.7233 134,95.5C 135.5,95.6667 136.333,96.5 136.5,98C 135.713,100.099 135.38,102.266 135.5,104.5C 138.428,104.852 141.262,105.518 144,106.5C 146.08,104.877 148.246,103.377 150.5,102C 149.778,98.8984 149.611,95.7317 150,92.5C 148.5,91 147,89.5 145.5,88C 146.874,85.4171 148.374,82.9171 150,80.5C 152.519,82.2119 153.019,84.3786 151.5,87C 154.88,87.9344 157.88,89.6011 160.5,92C 159.434,94.9232 159.434,98.0899 160.5,101.5C 161.873,101.657 163.207,101.49 164.5,101C 164.723,94.8682 164.057,88.7016 162.5,82.5C 161.729,77.9585 163.062,74.2919 166.5,71.5 Z"/></g>
<g><path style="opacity:0.004" fill="#e5e6e5" d="M 225.5,89.5 C 227.527,89.3379 229.527,89.5045 231.5,90C 230.207,90.49 228.873,90.6567 227.5,90.5C 227.702,92.9892 227.202,95.3225 226,97.5C 224.304,94.8806 224.137,92.214 225.5,89.5 Z"/></g>
<g><path style="opacity:0.004" fill="#e5e6e5" d="M 674.5,89.5 C 676.527,89.3379 678.527,89.5045 680.5,90C 679.584,90.3742 678.75,90.8742 678,91.5C 677.503,93.8098 677.337,96.1432 677.5,98.5C 676.5,98.5 675.5,98.5 674.5,98.5C 674.5,95.5 674.5,92.5 674.5,89.5 Z"/></g>
<g><path style="opacity:0.005" fill="#ececec" d="M 749.5,89.5 C 751.506,93.1985 752.006,97.1985 751,101.5C 750.047,103.592 748.714,103.925 747,102.5C 746.333,98.5 746.333,94.5 747,90.5C 747.671,89.7476 748.504,89.4142 749.5,89.5 Z"/></g>
<g><path style="opacity:0.004" fill="#ececec" d="M 717.5,90.5 C 719.298,92.1122 721.298,93.6122 723.5,95C 721.87,97.3662 720.037,99.5329 718,101.5C 716.764,100.601 715.93,99.4341 715.5,98C 716.108,95.4465 716.775,92.9465 717.5,90.5 Z"/></g>
<g><path style="opacity:0.005" fill="#e7e7e7" d="M 775.5,91.5 C 776.822,91.33 777.989,91.6634 779,92.5C 780.143,96.6095 779.477,100.276 777,103.5C 775.667,102.833 774.667,101.833 774,100.5C 772.951,102.107 771.451,102.773 769.5,102.5C 770.013,99.5515 770.013,96.7181 769.5,94C 770.025,93.3076 770.692,92.8076 771.5,92.5C 773.632,100.406 774.965,100.072 775.5,91.5 Z"/></g>
<g><path style="opacity:0.004" fill="#e5e6e5" d="M 765.5,92.5 C 766.598,93.6009 766.765,94.9343 766,96.5C 765.51,95.2068 765.343,93.8734 765.5,92.5 Z"/></g>
<g><path style="opacity:0.005" fill="#fefefe" d="M 30.5,93.5 C 31.4959,93.4142 32.3292,93.7476 33,94.5C 34.8315,98.3483 34.4981,102.015 32,105.5C 29.6137,101.736 29.1137,97.7355 30.5,93.5 Z"/></g>
<g><path style="opacity:0.004" fill="#e5e6e5" d="M 742.5,95.5 C 744.476,96.4271 744.809,97.7605 743.5,99.5C 741.358,98.5629 741.024,97.2296 742.5,95.5 Z"/></g>
<g><path style="opacity:0.004" fill="#e5e6e5" d="M 179.5,104.5 C 180.675,104.281 181.675,104.614 182.5,105.5C 182.22,108.604 181.72,111.604 181,114.5C 180.056,113.737 179.556,112.737 179.5,111.5C 180.821,109.147 180.821,106.814 179.5,104.5 Z"/></g>
<g><path style="opacity:0.004" fill="#e8e8e8" d="M 719.5,104.5 C 722.568,104.547 725.568,105.047 728.5,106C 724.944,107.731 722.611,110.565 721.5,114.5C 722.648,116.149 723.981,117.649 725.5,119C 723.323,120.202 720.989,120.702 718.5,120.5C 718.665,118.173 719.331,116.007 720.5,114C 719.549,110.943 719.216,107.777 719.5,104.5 Z"/></g>
<g><path style="opacity:0.006" fill="#e8e8e8" d="M 749.5,104.5 C 752.518,104.335 755.518,104.502 758.5,105C 758.366,107.039 758.866,109.206 760,111.5C 761.11,109.603 761.276,107.77 760.5,106C 762.167,104 763.833,104 765.5,106C 765.382,109.03 765.215,112.197 765,115.5C 763.062,116.86 761.396,116.527 760,114.5C 758.921,116.394 757.587,116.727 756,115.5C 755.689,112.568 755.522,109.902 755.5,107.5C 754.387,111.493 754.387,115.493 755.5,119.5C 754.07,119.421 752.736,119.754 751.5,120.5C 750.679,123.447 750.179,126.447 750,129.5C 749.333,130.833 748.667,130.833 748,129.5C 748.741,121.217 749.241,112.884 749.5,104.5 Z"/></g>
<g><path style="opacity:0.004" fill="#e5e6e5" d="M 210.5,106.5 C 211.077,105.227 211.743,105.227 212.5,106.5C 212.03,107.463 211.363,107.463 210.5,106.5 Z"/></g>
<g><path style="opacity:0.004" fill="#e8e8e8" d="M 211.5,109.5 C 213.024,112.207 214.024,115.207 214.5,118.5C 211.588,119.947 209.755,122.281 209,125.5C 208.5,124 208,122.5 207.5,121C 209.726,117.463 211.059,113.629 211.5,109.5 Z"/></g>
<g><path style="opacity:0.187" fill="#f2f2f2" d="M 493.5,64.5 C 488.941,69.2746 485.107,74.6079 482,80.5C 469.374,112.88 456.207,144.88 442.5,176.5C 442.337,174.143 442.503,171.81 443,169.5C 446.692,162.803 450.025,155.803 453,148.5C 454.72,144.018 455.886,139.352 456.5,134.5C 457.5,134.5 458.5,134.5 459.5,134.5C 459.338,132.473 459.505,130.473 460,128.5C 460.414,128.043 460.914,127.709 461.5,127.5C 463.63,120.833 465.63,114.166 467.5,107.5C 468.5,107.5 469.5,107.5 470.5,107.5C 470.338,105.473 470.505,103.473 471,101.5C 472.563,98.4261 474.23,95.4261 476,92.5C 476.333,90.5 476.667,88.5 477,86.5C 479.951,81.0259 482.451,75.3592 484.5,69.5C 487.304,67.5954 490.304,65.9287 493.5,64.5 Z"/></g>
<g><path style="opacity:0.004" fill="#e5e6e5" d="M 731.5,118.5 C 732.833,119.167 732.833,119.167 731.5,118.5 Z"/></g>
<g><path style="opacity:0.004" fill="#e5e6e5" d="M 166.5,119.5 C 167.833,120.167 167.833,120.167 166.5,119.5 Z"/></g>
<g><path style="opacity:0.004" fill="#eeeeee" d="M 179.5,117.5 C 180.5,117.5 181.5,117.5 182.5,117.5C 182.313,119.564 181.813,121.564 181,123.5C 179.782,121.981 178.282,120.814 176.5,120C 177.942,119.623 178.942,118.79 179.5,117.5 Z"/></g>
<g><path style="opacity:0.004" fill="#e5e6e5" d="M 705.5,119.5 C 706.5,119.5 707.5,119.5 708.5,119.5C 707.5,124.833 706.5,124.833 705.5,119.5 Z"/></g>
<g><path style="opacity:0.007" fill="#e7e7e7" d="M 765.5,119.5 C 769.328,123.454 773.161,123.454 777,119.5C 777.772,119.645 778.439,119.978 779,120.5C 779.499,125.155 779.666,129.821 779.5,134.5C 774.639,134.937 769.972,134.437 765.5,133C 769.244,131.249 770.244,128.415 768.5,124.5C 767.201,125.09 766.368,126.09 766,127.5C 765.598,126.128 765.098,124.795 764.5,123.5C 765.246,122.264 765.579,120.93 765.5,119.5 Z"/></g>
<g><path style="opacity:0.099" fill="#fafafa" d="M 29.5,134.5 C 30.0461,128.933 29.3794,123.6 27.5,118.5C 30.0346,117.747 32.5346,118.08 35,119.5C 34.9731,122.193 35.4731,125.027 36.5,128C 36.5607,129.711 35.8941,131.044 34.5,132C 35.1667,132.333 35.8333,132.667 36.5,133C 34.3225,134.202 31.9892,134.702 29.5,134.5 Z"/></g>
<g><path style="opacity:0.992" fill="#010101" d="M 350.5,181.5 C 325.521,205.812 300.854,230.479 276.5,255.5C 302.153,281.653 327.986,307.653 354,333.5C 357.887,339.66 360.054,346.326 360.5,353.5C 357.246,377.244 343.579,388.411 319.5,387C 312.688,385.594 306.688,382.594 301.5,378C 290.632,366.965 279.632,356.131 268.5,345.5C 249.167,325.5 229.5,305.833 209.5,286.5C 188.167,265.833 188.167,245.167 209.5,224.5C 213.5,221.167 217.167,217.5 220.5,213.5C 232.167,202.5 243.5,191.167 254.5,179.5C 258.5,176.167 262.167,172.5 265.5,168.5C 266.833,167.833 267.833,166.833 268.5,165.5C 280.994,153.173 293.661,141.006 306.5,129C 325.664,119.062 341.83,122.562 355,139.5C 362.661,154.392 361.161,168.392 350.5,181.5 Z"/></g>
<g><path style="opacity:0.991" fill="#010101" d="M 630.5,345.5 C 618.006,357.827 605.339,369.994 592.5,382C 573.374,391.954 557.207,388.454 544,371.5C 536.281,356.578 537.781,342.578 548.5,329.5C 573.479,305.188 598.146,280.521 622.5,255.5C 597.181,229.68 571.681,204.014 546,178.5C 541.987,172.283 539.487,165.616 538.5,158.5C 538.5,157.833 538.5,157.167 538.5,156.5C 542.505,132.976 556.505,122.143 580.5,124C 584.729,125.115 588.729,126.781 592.5,129C 627.306,162.805 661.806,196.972 696,231.5C 707.282,245.47 708.282,260.137 699,275.5C 676.327,299.006 653.493,322.34 630.5,345.5 Z"/></g>
<g><path style="opacity:0.004" fill="#e5e6e5" d="M 734.5,123.5 C 735.833,124.167 735.833,124.167 734.5,123.5 Z"/></g>
<g><path style="opacity:0.004" fill="#e5e6e5" d="M 675.5,124.5 C 676.573,125.251 676.74,126.251 676,127.5C 675.517,126.552 675.351,125.552 675.5,124.5 Z"/></g>
<g><path style="opacity:0.004" fill="#e5e6e5" d="M 706.5,129.5 C 710.761,133.242 710.094,134.575 704.5,133.5C 705.63,132.378 706.297,131.044 706.5,129.5 Z"/></g>
<g><path style="opacity:0.004" fill="#e5e6e5" d="M 166.5,132.5 C 167.833,133.167 167.833,133.167 166.5,132.5 Z"/></g>
<g><path style="opacity:0.004" fill="#e5e6e5" d="M 734.5,133.5 C 735.946,132.387 737.613,132.22 739.5,133C 737.866,133.494 736.199,133.66 734.5,133.5 Z"/></g>
<g><path style="opacity:0.004" fill="#fefffe" d="M 29.5,134.5 C 28.8333,135.167 28.8333,135.167 29.5,134.5 Z"/></g>
<g><path style="opacity:0.004" fill="#e7e7e7" d="M 719.5,134.5 C 720.822,134.33 721.989,134.663 723,135.5C 723.717,139.045 723.55,142.545 722.5,146C 722.82,147.653 723.82,148.653 725.5,149C 723.655,150.128 721.655,150.628 719.5,150.5C 719.5,145.167 719.5,139.833 719.5,134.5 Z"/></g>
<g><path style="opacity:0.006" fill="#e8e8e8" d="M 750.5,134.5 C 751.583,134.539 752.583,134.873 753.5,135.5C 754.192,140.048 754.859,144.548 755.5,149C 752,149.833 749.833,152 749,155.5C 748.5,154 748,152.5 747.5,151C 749.104,145.602 750.104,140.102 750.5,134.5 Z"/></g>
<g><path style="opacity:0.004" fill="#e5e6e5" d="M 731.5,136.5 C 731.897,135.475 732.563,135.308 733.5,136C 732.906,136.464 732.239,136.631 731.5,136.5 Z"/></g>
<g><path style="opacity:0.005" fill="#eaeaea" d="M 763.5,149.5 C 761.489,148.583 760.489,146.917 760.5,144.5C 760.682,141.774 761.182,139.107 762,136.5C 762.414,136.043 762.914,135.709 763.5,135.5C 765.047,136.768 766.047,138.435 766.5,140.5C 766.025,143.753 765.025,146.753 763.5,149.5 Z"/></g>
<g><path style="opacity:0.004" fill="#e9e9e9" d="M 778.5,135.5 C 779.978,135.238 781.311,135.571 782.5,136.5C 781.134,139.692 780.301,143.026 780,146.5C 779.452,142.83 778.952,139.163 778.5,135.5 Z"/></g>
<g><path style="opacity:0.004" fill="#e8e8e8" d="M 793.5,137.5 C 794.117,137.611 794.617,137.944 795,138.5C 795.667,140.5 795.667,142.5 795,144.5C 793.75,145.573 792.416,145.573 791,144.5C 789.739,144.759 788.739,145.426 788,146.5C 787.308,145.975 786.808,145.308 786.5,144.5C 787.333,142.833 788.167,141.167 789,139.5C 791.108,140.612 792.608,139.946 793.5,137.5 Z"/></g>
<g><path style="opacity:0.004" fill="#e5e6e5" d="M 756.5,139.5 C 757.649,139.791 758.316,140.624 758.5,142C 757.61,145.04 756.61,144.873 755.5,141.5C 755.863,140.817 756.196,140.15 756.5,139.5 Z"/></g>
<g><path style="opacity:0.004" fill="#e5e6e5" d="M 732.5,141.5 C 734.558,142.933 734.392,144.599 732,146.5C 731.36,144.735 731.527,143.068 732.5,141.5 Z"/></g>
<g><path style="opacity:0.004" fill="#fefffe" d="M 736.5,141.5 C 737.833,142.167 737.833,142.167 736.5,141.5 Z"/></g>
<g><path style="opacity:0.005" fill="#f9f9f9" d="M 21.5,147.5 C 30.7671,148.694 30.7671,149.527 21.5,150C 20.8333,149.667 20.1667,149.333 19.5,149C 20.4158,148.722 21.0825,148.222 21.5,147.5 Z"/></g>
<g><path style="opacity:0.096" fill="#f4f4f4" d="M 349.5,184.5 C 350.11,183.609 350.443,182.609 350.5,181.5C 361.161,168.392 362.661,154.392 355,139.5C 341.83,122.562 325.664,119.062 306.5,129C 293.661,141.006 280.994,153.173 268.5,165.5C 269.615,161.534 272.115,158.534 276,156.5C 276.483,155.552 276.649,154.552 276.5,153.5C 277.5,153.5 278.5,153.5 279.5,153.5C 279.5,152.5 279.5,151.5 279.5,150.5C 283.167,148.833 285.833,146.167 287.5,142.5C 288.5,142.5 289.5,142.5 290.5,142.5C 290.5,141.5 290.5,140.5 290.5,139.5C 291.5,139.5 292.5,139.5 293.5,139.5C 293.5,138.5 293.5,137.5 293.5,136.5C 297.855,134.001 301.855,130.834 305.5,127C 313.744,121.904 322.744,120.237 332.5,122C 338.216,124.071 343.882,126.238 349.5,128.5C 349.5,129.5 349.5,130.5 349.5,131.5C 350.675,131.281 351.675,131.614 352.5,132.5C 354.26,134.554 356.093,136.554 358,138.5C 359.632,145.074 361.465,151.574 363.5,158C 361.383,164.015 359.55,170.182 358,176.5C 355.889,179.059 354.056,181.726 352.5,184.5C 351.5,184.5 350.5,184.5 349.5,184.5 Z"/></g>
<g><path style="opacity:0.004" fill="#e5e6e5" d="M 731.5,148.5 C 732.833,149.167 732.833,149.167 731.5,148.5 Z"/></g>
<g><path style="opacity:0.006" fill="#e8e8e8" d="M 779.5,179.5 C 779.414,178.504 779.748,177.671 780.5,177C 787.29,175.816 787.957,173.316 782.5,169.5C 781.522,169.977 780.689,170.643 780,171.5C 778.798,169.323 778.298,166.989 778.5,164.5C 774.418,164.344 770.418,164.844 766.5,166C 765.833,170 765.167,174 764.5,178C 760.045,178.264 755.711,179.098 751.5,180.5C 750.914,180.291 750.414,179.957 750,179.5C 749.501,174.177 749.334,168.844 749.5,163.5C 754.568,162.734 757.901,164.734 759.5,169.5C 757.599,170.935 757.266,172.602 758.5,174.5C 757.02,175.113 755.687,175.446 754.5,175.5C 756.341,176.23 758.175,176.897 760,177.5C 760.333,173.5 760.667,169.5 761,165.5C 761.414,165.043 761.914,164.709 762.5,164.5C 763.948,159.496 764.282,154.496 763.5,149.5C 767.106,149.211 770.606,149.544 774,150.5C 777.721,148.43 781.721,147.097 786,146.5C 788.28,147.086 790.447,147.92 792.5,149C 788.187,149.735 783.853,150.235 779.5,150.5C 779.5,155.167 779.5,159.833 779.5,164.5C 783.868,164.37 788.202,164.703 792.5,165.5C 794.552,165.616 795.885,166.616 796.5,168.5C 795.974,171.843 794.974,175.01 793.5,178C 788.934,179.309 784.267,179.809 779.5,179.5 Z M 772.5,151.5 C 774.337,151.639 774.67,152.306 773.5,153.5C 772.702,153.043 772.369,152.376 772.5,151.5 Z"/></g>
<g><path style="opacity:0.006" fill="#e6e6e6" d="M 794.5,149.5 C 796.167,149.5 797.833,149.5 799.5,149.5C 799.335,152.85 799.502,156.183 800,159.5C 800.495,157.527 800.662,155.527 800.5,153.5C 801.5,153.5 802.5,153.5 803.5,153.5C 803.833,156.167 804.167,158.833 804.5,161.5C 802.856,161.714 801.356,161.38 800,160.5C 799.833,160.833 799.667,161.167 799.5,161.5C 801.5,162.167 803.5,162.833 805.5,163.5C 801.893,164.489 798.226,164.823 794.5,164.5C 794.5,159.5 794.5,154.5 794.5,149.5 Z"/></g>
<g><path style="opacity:0.004" fill="#fefffe" d="M 31.5,150.5 C 32.8333,151.167 32.8333,151.167 31.5,150.5 Z"/></g>
<g><path style="opacity:0.004" fill="#e5e6e5" d="M 734.5,151.5 C 734.897,150.475 735.563,150.308 736.5,151C 735.906,151.464 735.239,151.631 734.5,151.5 Z"/></g>
<g><path style="opacity:0.004" fill="#e5e6e5" d="M 807.5,150.5 C 808.833,151.167 808.833,151.167 807.5,150.5 Z"/></g>
<g><path style="opacity:0.005" fill="#fefffe" d="M 29.5,152.5 C 31.6648,152.116 33.3315,152.783 34.5,154.5C 32.0408,161.914 30.3741,161.248 29.5,152.5 Z"/></g>
<g><path style="opacity:0.065" fill="#f1f1f1" d="M 630.5,345.5 C 653.493,322.34 676.327,299.006 699,275.5C 708.282,260.137 707.282,245.47 696,231.5C 661.806,196.972 627.306,162.805 592.5,129C 588.729,126.781 584.729,125.115 580.5,124C 556.505,122.143 542.505,132.976 538.5,156.5C 538.174,152.116 538.508,147.783 539.5,143.5C 541.005,140.478 542.339,137.478 543.5,134.5C 544.5,134.5 545.5,134.5 546.5,134.5C 546.5,133.5 546.5,132.5 546.5,131.5C 550.78,128.104 555.613,125.438 561,123.5C 574.797,119.098 587.297,121.431 598.5,130.5C 599.386,131.325 599.719,132.325 599.5,133.5C 600.5,133.5 601.5,133.5 602.5,133.5C 602.5,134.5 602.5,135.5 602.5,136.5C 603.5,136.5 604.5,136.5 605.5,136.5C 605.5,137.5 605.5,138.5 605.5,139.5C 607.433,139.729 609.1,140.562 610.5,142C 612.908,144.688 614.908,147.521 616.5,150.5C 617.5,150.5 618.5,150.5 619.5,150.5C 619.5,151.5 619.5,152.5 619.5,153.5C 622.552,154.71 625.219,156.544 627.5,159C 630.65,163.483 634.483,167.317 639,170.5C 639.483,171.448 639.649,172.448 639.5,173.5C 640.675,173.281 641.675,173.614 642.5,174.5C 644.656,176.629 646.323,178.962 647.5,181.5C 648.5,181.5 649.5,181.5 650.5,181.5C 650.5,182.5 650.5,183.5 650.5,184.5C 653.232,186.035 655.898,187.869 658.5,190C 660.174,191.506 661.174,193.339 661.5,195.5C 662.5,195.5 663.5,195.5 664.5,195.5C 664.5,196.5 664.5,197.5 664.5,198.5C 666.433,198.729 668.1,199.562 669.5,201C 671.908,203.688 673.908,206.521 675.5,209.5C 677.433,209.729 679.1,210.562 680.5,212C 685.052,216.929 689.718,221.763 694.5,226.5C 695.386,227.325 695.719,228.325 695.5,229.5C 696.5,229.5 697.5,229.5 698.5,229.5C 698.5,230.5 698.5,231.5 698.5,232.5C 699.5,232.5 700.5,232.5 701.5,232.5C 703.257,235.684 704.757,239.017 706,242.5C 706.145,246.991 706.979,251.324 708.5,255.5C 706.947,260.01 706.114,264.676 706,269.5C 702.848,273.168 700.348,277.168 698.5,281.5C 693.577,283.92 689.744,287.587 687,292.5C 683.172,294.82 680.338,297.82 678.5,301.5C 677.5,301.5 676.5,301.5 675.5,301.5C 673.167,306.5 669.5,310.167 664.5,312.5C 664.5,313.5 664.5,314.5 664.5,315.5C 663.5,315.5 662.5,315.5 661.5,315.5C 659.833,319.167 657.167,321.833 653.5,323.5C 653.5,324.5 653.5,325.5 653.5,326.5C 652.5,326.5 651.5,326.5 650.5,326.5C 650.5,327.5 650.5,328.5 650.5,329.5C 646.167,330.5 643.5,333.167 642.5,337.5C 641.5,337.5 640.5,337.5 639.5,337.5C 639.719,338.675 639.386,339.675 638.5,340.5C 635.763,342.274 633.096,343.941 630.5,345.5 Z"/></g>
<g><path style="opacity:0.004" fill="#e5e6e5" d="M 806.5,154.5 C 807.251,153.427 808.251,153.26 809.5,154C 809.665,156.257 809.165,158.424 808,160.5C 806.818,158.491 806.318,156.491 806.5,154.5 Z"/></g>
<g><path style="opacity:0.004" fill="#e5e6e5" d="M 748.5,156.5 C 749.613,157.946 749.78,159.613 749,161.5C 748.506,159.866 748.34,158.199 748.5,156.5 Z"/></g>
<g><path style="opacity:0.005" fill="#e7e7e7" d="M 166.5,158.5 C 167.779,160.123 169.113,161.79 170.5,163.5C 167.252,163.863 165.086,165.529 164,168.5C 163.696,164.908 164.529,161.574 166.5,158.5 Z"/></g>
<g><path style="opacity:0.004" fill="#e8e8e8" d="M 733.5,162.5 C 736.518,162.335 739.518,162.502 742.5,163C 741.056,164.064 739.389,164.564 737.5,164.5C 735.667,164.415 734.334,163.748 733.5,162.5 Z"/></g>
<g><path style="opacity:0.004" fill="#e5e6e5" d="M 179.5,164.5 C 180.833,164.5 182.167,164.5 183.5,164.5C 181.654,172.375 180.321,172.375 179.5,164.5 Z"/></g>
<g><path style="opacity:0.004" fill="#e5e6e5" d="M 719.5,164.5 C 720.978,164.238 722.311,164.571 723.5,165.5C 721.282,174.67 719.948,174.337 719.5,164.5 Z"/></g>
<g><path style="opacity:0.261" fill="#fefffe" d="M 268.5,165.5 C 267.833,166.833 266.833,167.833 265.5,168.5C 265.5,167.5 265.5,166.5 265.5,165.5C 266.5,165.5 267.5,165.5 268.5,165.5 Z"/></g>
<g><path style="opacity:0.004" fill="#e5e6e5" d="M 821.5,167.5 C 824.915,169.929 825.249,172.762 822.5,176C 822.957,176.414 823.291,176.914 823.5,177.5C 820.554,178.655 817.554,178.821 814.5,178C 817.043,177.86 819.377,177.194 821.5,176C 819.258,173.252 819.258,170.418 821.5,167.5 Z"/></g>
<g><path style="opacity:0.201" fill="#fdfdfd" d="M 265.5,168.5 C 262.167,172.5 258.5,176.167 254.5,179.5C 255.167,177.5 255.833,175.5 256.5,173.5C 259.304,171.595 262.304,169.929 265.5,168.5 Z"/></g>
<g><path style="opacity:0.004" fill="#e5e6e5" d="M 815.5,168.5 C 816.525,168.897 816.692,169.563 816,170.5C 815.536,169.906 815.369,169.239 815.5,168.5 Z"/></g>
<g><path style="opacity:0.004" fill="#e5e6e5" d="M 810.5,169.5 C 811.598,170.601 811.765,171.934 811,173.5C 810.51,172.207 810.343,170.873 810.5,169.5 Z"/></g>
<g><path style="opacity:0.004" fill="#e5e6e5" d="M 815.5,173.5 C 817.337,173.639 817.67,174.306 816.5,175.5C 815.702,175.043 815.369,174.376 815.5,173.5 Z"/></g>
<g><path style="opacity:0.004" fill="#e5e6e5" d="M 731.5,177.5 C 732.833,178.167 732.833,178.167 731.5,177.5 Z"/></g>
<g><path style="opacity:0.006" fill="#e8e8e8" d="M 779.5,179.5 C 779.5,184.5 779.5,189.5 779.5,194.5C 783.375,194.085 787.042,194.585 790.5,196C 785.753,195.622 782.253,197.455 780,201.5C 779.187,199.564 778.687,197.564 778.5,195.5C 776.409,195.682 774.409,195.348 772.5,194.5C 768.89,195.658 765.223,196.158 761.5,196C 762.966,194.448 763.966,192.614 764.5,190.5C 763.197,186.968 763.197,183.468 764.5,180C 769.535,180.347 774.535,180.181 779.5,179.5 Z M 773.5,181.5 C 774.289,181.783 774.956,182.283 775.5,183C 774.712,186.076 774.212,189.242 774,192.5C 772.842,192.002 772.009,191.169 771.5,190C 773.347,187.238 774.014,184.404 773.5,181.5 Z"/></g>
<g><path style="opacity:0.004" fill="#e5e6e5" d="M 748.5,180.5 C 749.833,181.167 749.833,181.167 748.5,180.5 Z"/></g>
<g><path style="opacity:0.125" fill="#ebebeb" d="M 442.5,176.5 C 439.629,185.898 435.962,194.898 431.5,203.5C 430.964,200.335 431.797,197.669 434,195.5C 435.631,188.916 437.464,182.583 439.5,176.5C 440.5,176.5 441.5,176.5 442.5,176.5 Z"/></g>
<g><path style="opacity:0.166" fill="#fcfcfc" d="M 254.5,179.5 C 243.5,191.167 232.167,202.5 220.5,213.5C 220.5,212.167 220.5,210.833 220.5,209.5C 222.905,208.313 225.239,206.813 227.5,205C 228.337,203.989 228.67,202.822 228.5,201.5C 229.5,201.5 230.5,201.5 231.5,201.5C 231.5,200.5 231.5,199.5 231.5,198.5C 232.5,198.5 233.5,198.5 234.5,198.5C 234.5,197.5 234.5,196.5 234.5,195.5C 235.675,195.719 236.675,195.386 237.5,194.5C 239.656,192.371 241.323,190.038 242.5,187.5C 243.5,187.5 244.5,187.5 245.5,187.5C 245.5,186.5 245.5,185.5 245.5,184.5C 248.304,182.595 251.304,180.929 254.5,179.5 Z"/></g>
<g><path style="opacity:0.004" fill="#e5e6e5" d="M 810.5,194.5 C 812.086,195.148 813.753,195.648 815.5,196C 814.667,196.167 813.833,196.333 813,196.5C 811.624,196.316 810.791,195.649 810.5,194.5 Z"/></g>
<g><path style="opacity:0.004" fill="#e5e6e5" d="M 821.5,194.5 C 824.137,196.154 823.803,196.654 820.5,196C 821.056,195.617 821.389,195.117 821.5,194.5 Z"/></g>
<g><path style="opacity:0.004" fill="#e5e6e5" d="M 787.5,197.5 C 789.973,197.947 790.14,198.947 788,200.5C 787.25,199.874 786.416,199.374 785.5,199C 786.416,198.722 787.082,198.222 787.5,197.5 Z"/></g>
<g><path style="opacity:0.004" fill="#e9e9e9" d="M 762.5,200.5 C 766.34,201.568 766.507,203.235 763,205.5C 761.212,203.977 761.045,202.31 762.5,200.5 Z"/></g>
<g><path style="opacity:0.004" fill="#e5e6e5" d="M 787.5,203.5 C 789.337,203.639 789.67,204.306 788.5,205.5C 787.702,205.043 787.369,204.376 787.5,203.5 Z"/></g>
<g><path style="opacity:0.004" fill="#e7e7e7" d="M 765.5,208.5 C 767.665,208.116 769.332,208.783 770.5,210.5C 770.206,213.759 768.706,216.759 766,219.5C 764.181,215.941 764.014,212.274 765.5,208.5 Z"/></g>
<g><path style="opacity:0.006" fill="#e8e8e8" d="M 809.5,224.5 C 805.176,224.927 800.842,225.261 796.5,225.5C 796.739,227.467 796.406,229.301 795.5,231C 793.529,230.99 792.529,229.824 792.5,227.5C 794.313,221.658 794.98,215.658 794.5,209.5C 789.821,209.666 785.155,209.499 780.5,209C 780.167,208.667 779.833,208.333 779.5,208C 783.44,206.985 787.44,206.485 791.5,206.5C 791.589,202.283 792.423,198.283 794,194.5C 794.499,189.511 794.666,184.511 794.5,179.5C 797.271,179.421 799.937,179.921 802.5,181C 799.994,182.516 799.16,184.682 800,187.5C 800.549,183.383 802.216,182.716 805,185.5C 806.11,183.963 807.61,183.297 809.5,183.5C 810.573,186.721 810.573,189.888 809.5,193C 804.923,194.232 800.256,195.065 795.5,195.5C 795.5,199.833 795.5,204.167 795.5,208.5C 798.601,208.692 801.601,209.358 804.5,210.5C 806.434,210.099 807.934,209.099 809,207.5C 809.212,204.242 809.712,201.076 810.5,198C 812.833,197.333 815.167,197.333 817.5,198C 818.881,204.02 819.547,203.853 819.5,197.5C 821.167,197.5 822.833,197.5 824.5,197.5C 824.5,201.5 824.5,205.5 824.5,209.5C 819.833,209.5 815.167,209.5 810.5,209.5C 810.779,214.595 810.445,219.595 809.5,224.5 Z M 799.5,216.5 C 800.234,217.878 800.901,219.378 801.5,221C 801.167,221.167 800.833,221.333 800.5,221.5C 799.548,219.955 799.215,218.288 799.5,216.5 Z"/></g>
<g><path style="opacity:0.173" fill="#fcfcfc" d="M 220.5,213.5 C 217.167,217.5 213.5,221.167 209.5,224.5C 211.5,219.167 215.167,215.5 220.5,213.5 Z"/></g>
<g><path style="opacity:0.004" fill="#e6e6e6" d="M 809.5,224.5 C 811.564,224.687 813.564,225.187 815.5,226C 814.584,226.374 813.75,226.874 813,227.5C 812.64,229.608 811.973,231.608 811,233.5C 810.79,230.766 809.956,228.266 808.5,226C 809.056,225.617 809.389,225.117 809.5,224.5 Z"/></g>
<g><path style="opacity:0.006" fill="#e7e7e7" d="M 821.5,225.5 C 823.959,226.874 824.959,229.04 824.5,232C 824.371,233.981 823.704,235.647 822.5,237C 822.957,237.414 823.291,237.914 823.5,238.5C 819.217,239.492 814.884,239.826 810.5,239.5C 810.818,243.794 809.985,247.794 808,251.5C 805.87,247.689 805.37,243.689 806.5,239.5C 808.998,238.373 811.664,237.706 814.5,237.5C 820.923,239.342 822.589,237.508 819.5,232C 819.338,229.498 820.005,227.331 821.5,225.5 Z"/></g>
<g><path style="opacity:0.004" fill="#e5e6e5" d="M 815.5,231.5 C 815.897,230.475 816.563,230.308 817.5,231C 816.906,231.464 816.239,231.631 815.5,231.5 Z"/></g>
<g><path style="opacity:0.004" fill="#e5e6e5" d="M 815.5,233.5 C 817.337,233.639 817.67,234.306 816.5,235.5C 815.702,235.043 815.369,234.376 815.5,233.5 Z"/></g>
<g><path style="opacity:0.004" fill="#e7e7e7" d="M 796.5,238.5 C 800.276,239.665 800.443,241.332 797,243.5C 794.114,241.83 793.948,240.163 796.5,238.5 Z"/></g>
<g><path style="opacity:0.004" fill="#e5e6e5" d="M 866.5,248.5 C 867.525,248.897 867.692,249.563 867,250.5C 866.536,249.906 866.369,249.239 866.5,248.5 Z"/></g>
<g><path style="opacity:0.004" fill="#e5e6e5" d="M 865.5,253.5 C 866.251,252.427 867.251,252.26 868.5,253C 867.552,253.483 866.552,253.649 865.5,253.5 Z"/></g>
<g><path style="opacity:0.2" fill="#eeeeee" d="M 431.5,203.5 C 411.628,254.232 390.962,304.566 369.5,354.5C 369.5,352.167 369.5,349.833 369.5,347.5C 370.5,347.5 371.5,347.5 372.5,347.5C 373.023,343.127 373.857,338.794 375,334.5C 380.137,324.981 384.803,315.314 389,305.5C 390.739,298.612 392.573,291.945 394.5,285.5C 395.5,285.5 396.5,285.5 397.5,285.5C 397.5,283.167 397.5,280.833 397.5,278.5C 398.5,278.5 399.5,278.5 400.5,278.5C 402.536,272.417 404.369,266.084 406,259.5C 408.165,257.347 408.998,254.681 408.5,251.5C 409.5,251.5 410.5,251.5 411.5,251.5C 411.338,249.473 411.505,247.473 412,245.5C 413.787,242.946 415.287,240.28 416.5,237.5C 417.801,233.196 418.968,228.863 420,224.5C 423.404,219.971 426.071,214.971 428,209.5C 428.495,207.527 428.662,205.527 428.5,203.5C 429.5,203.5 430.5,203.5 431.5,203.5 Z"/></g>
<g><path style="opacity:0.004" fill="#e5e6e5" d="M 821.5,261.5 C 822.922,261.75 823.922,262.583 824.5,264C 823.88,266.212 822.713,268.046 821,269.5C 820.5,269.333 820,269.167 819.5,269C 820.22,266.509 820.887,264.009 821.5,261.5 Z"/></g>
<g><path style="opacity:0.004" fill="#e7e7e7" d="M 810.5,267.5 C 818.377,268.381 818.377,269.381 810.5,270.5C 809.985,272.225 809.318,273.892 808.5,275.5C 807.119,275 806.453,274 806.5,272.5C 807.323,270.423 808.656,268.756 810.5,267.5 Z"/></g>
<g><path style="opacity:0.004" fill="#e5e6e5" d="M 866.5,269.5 C 869.137,271.154 868.803,271.654 865.5,271C 866.056,270.617 866.389,270.117 866.5,269.5 Z"/></g>
<g><path style="opacity:0.004" fill="#e5e6e5" d="M 765.5,270.5 C 766.833,271.167 766.833,271.167 765.5,270.5 Z"/></g>
<g><path style="opacity:0.165" fill="#efefef" d="M 209.5,224.5 C 188.167,245.167 188.167,265.833 209.5,286.5C 206.304,285.071 203.304,283.405 200.5,281.5C 198.37,277.158 196.037,272.825 193.5,268.5C 192.335,260.187 192.168,251.853 193,243.5C 196.152,235.163 201.652,228.83 209.5,224.5 Z"/></g>
<g><path style="opacity:0.004" fill="#e5e6e5" d="M 866.5,273.5 C 867.833,274.167 867.833,274.167 866.5,273.5 Z"/></g>
<g><path style="opacity:0.004" fill="#e5e6e5" d="M 821.5,290.5 C 822.837,291.315 823.837,292.482 824.5,294C 823.62,295.356 823.286,296.856 823.5,298.5C 822.5,298.5 821.5,298.5 820.5,298.5C 820.279,295.721 820.612,293.054 821.5,290.5 Z"/></g>
<g><path style="opacity:0.055" fill="#dedede" d="M 538.5,158.5 C 539.487,165.616 541.987,172.283 546,178.5C 571.681,204.014 597.181,229.68 622.5,255.5C 598.146,280.521 573.479,305.188 548.5,329.5C 548.158,328.662 547.492,328.328 546.5,328.5C 549.698,325.194 553.031,321.86 556.5,318.5C 557.386,317.675 557.719,316.675 557.5,315.5C 560.304,313.595 563.304,311.929 566.5,310.5C 566.5,309.5 566.5,308.5 566.5,307.5C 567.5,307.5 568.5,307.5 569.5,307.5C 569.729,305.567 570.562,303.9 572,302.5C 574.688,300.092 577.521,298.092 580.5,296.5C 580.5,295.5 580.5,294.5 580.5,293.5C 581.5,293.5 582.5,293.5 583.5,293.5C 583.281,292.325 583.614,291.325 584.5,290.5C 586.629,288.344 588.962,286.677 591.5,285.5C 591.351,284.448 591.517,283.448 592,282.5C 596.809,279.532 600.309,275.532 602.5,270.5C 605.304,268.595 608.304,266.929 611.5,265.5C 611.5,264.5 611.5,263.5 611.5,262.5C 612.5,262.5 613.5,262.5 614.5,262.5C 615.353,259.637 617.02,257.304 619.5,255.5C 617.02,253.696 615.353,251.363 614.5,248.5C 611.304,247.071 608.304,245.405 605.5,243.5C 605.5,242.5 605.5,241.5 605.5,240.5C 604.5,240.5 603.5,240.5 602.5,240.5C 600.167,235.5 596.5,231.833 591.5,229.5C 591.649,228.448 591.483,227.448 591,226.5C 587.156,224.5 584.656,221.5 583.5,217.5C 577.167,214.5 572.5,209.833 569.5,203.5C 565.5,200.833 561.5,198.167 557.5,195.5C 555.167,190.5 551.5,186.833 546.5,184.5C 544.087,180.129 541.587,175.795 539,171.5C 538.762,167.778 538.262,164.111 537.5,160.5C 537.863,159.817 538.196,159.15 538.5,158.5 Z"/></g>
<g><path style="opacity:0.004" fill="#e5e6e5" d="M 765.5,299.5 C 768.772,301.208 768.938,303.542 766,306.5C 764.193,304.294 764.026,301.961 765.5,299.5 Z"/></g>
<g><path style="opacity:0.004" fill="#e5e6e5" d="M 866.5,300.5 C 867.833,301.167 867.833,301.167 866.5,300.5 Z"/></g>
<g><path style="opacity:0.004" fill="#e5e6e5" d="M 807.5,301.5 C 809.859,302.389 810.025,303.722 808,305.5C 807.51,304.207 807.343,302.873 807.5,301.5 Z"/></g>
<g><path style="opacity:0.138" fill="#e2e2e2" d="M 350.5,181.5 C 350.443,182.609 350.11,183.609 349.5,184.5C 346.428,187.9 343.761,191.567 341.5,195.5C 338.696,197.405 335.696,199.071 332.5,200.5C 332.5,201.5 332.5,202.5 332.5,203.5C 331.5,203.5 330.5,203.5 329.5,203.5C 328.5,207.833 325.833,210.5 321.5,211.5C 321.5,212.5 321.5,213.5 321.5,214.5C 320.5,214.5 319.5,214.5 318.5,214.5C 318.5,215.5 318.5,216.5 318.5,217.5C 317.5,217.5 316.5,217.5 315.5,217.5C 315.649,218.552 315.483,219.552 315,220.5C 312.564,222.467 310.064,224.134 307.5,225.5C 307.5,226.833 307.5,228.167 307.5,229.5C 302.167,231.5 298.5,235.167 296.5,240.5C 295.5,240.5 294.5,240.5 293.5,240.5C 293.5,241.5 293.5,242.5 293.5,243.5C 290.696,245.405 287.696,247.071 284.5,248.5C 283.833,250.5 283.167,252.5 282.5,254.5C 278.5,255.167 278.5,255.833 282.5,256.5C 283.5,260.833 286.167,263.5 290.5,264.5C 290.5,265.5 290.5,266.5 290.5,267.5C 295.5,269.833 299.167,273.5 301.5,278.5C 302.5,278.5 303.5,278.5 304.5,278.5C 304.5,279.5 304.5,280.5 304.5,281.5C 309.584,284.249 313.251,288.249 315.5,293.5C 319.794,294.798 322.794,297.465 324.5,301.5C 325.5,301.5 326.5,301.5 327.5,301.5C 328.5,305.833 331.167,308.5 335.5,309.5C 335.5,310.5 335.5,311.5 335.5,312.5C 336.5,312.5 337.5,312.5 338.5,312.5C 338.5,313.5 338.5,314.5 338.5,315.5C 342.167,317.167 344.833,319.833 346.5,323.5C 347.5,323.5 348.5,323.5 349.5,323.5C 349.5,324.5 349.5,325.5 349.5,326.5C 350.5,326.5 351.5,326.5 352.5,326.5C 354.579,330.705 357.079,334.705 360,338.5C 360.221,343.22 360.721,347.887 361.5,352.5C 361.376,353.107 361.043,353.44 360.5,353.5C 360.054,346.326 357.887,339.66 354,333.5C 327.986,307.653 302.153,281.653 276.5,255.5C 300.854,230.479 325.521,205.812 350.5,181.5 Z"/></g>
<g><path style="opacity:0.027" fill="#f5f5f5" d="M 209.5,286.5 C 229.5,305.833 249.167,325.5 268.5,345.5C 264.5,342.833 260.5,340.167 256.5,337.5C 255.5,333.167 252.833,330.5 248.5,329.5C 248.5,328.5 248.5,327.5 248.5,326.5C 247.5,326.5 246.5,326.5 245.5,326.5C 245.5,325.5 245.5,324.5 245.5,323.5C 241.833,321.833 239.167,319.167 237.5,315.5C 236.5,315.5 235.5,315.5 234.5,315.5C 234.5,314.5 234.5,313.5 234.5,312.5C 233.5,312.5 232.5,312.5 231.5,312.5C 231.5,311.5 231.5,310.5 231.5,309.5C 227.833,307.833 225.167,305.167 223.5,301.5C 222.5,301.5 221.5,301.5 220.5,301.5C 216.511,296.828 212.844,291.828 209.5,286.5 Z"/></g>
<g><path style="opacity:0.004" fill="#e5e6e5" d="M 810.5,316.5 C 811.598,317.601 811.765,318.934 811,320.5C 810.51,319.207 810.343,317.873 810.5,316.5 Z"/></g>
<g><path style="opacity:0.004" fill="#e5e6e5" d="M 820.5,317.5 C 822.346,317.222 823.68,317.889 824.5,319.5C 823.289,320.72 823.289,321.887 824.5,323C 823.789,324.255 822.956,325.421 822,326.5C 820.608,323.722 820.108,320.722 820.5,317.5 Z"/></g>
<g><path style="opacity:0.004" fill="#e5e6e5" d="M 807.5,332.5 C 810.001,332.511 810.168,333.178 808,334.5C 807.536,333.906 807.369,333.239 807.5,332.5 Z"/></g>
<g><path style="opacity:0.004" fill="#e5e6e5" d="M 720.5,344.5 C 721.473,344.987 722.473,345.487 723.5,346C 722.137,347.945 721.303,350.112 721,352.5C 719.788,349.784 719.621,347.117 720.5,344.5 Z"/></g>
<g><path style="opacity:0.004" fill="#e5e6e5" d="M 810.5,345.5 C 811.525,345.897 811.692,346.563 811,347.5C 810.536,346.906 810.369,346.239 810.5,345.5 Z"/></g>
<g><path style="opacity:0.004" fill="#e5e6e5" d="M 821.5,345.5 C 823.958,347.493 824.125,349.826 822,352.5C 820.193,350.26 820.026,347.927 821.5,345.5 Z"/></g>
<g><path style="opacity:0.027" fill="#f3f3f3" d="M 268.5,345.5 C 279.632,356.131 290.632,366.965 301.5,378C 306.688,382.594 312.688,385.594 319.5,387C 343.579,388.411 357.246,377.244 360.5,353.5C 360.666,358.179 360.499,362.845 360,367.5C 358.479,370.542 356.979,373.542 355.5,376.5C 354.5,376.5 353.5,376.5 352.5,376.5C 352.5,377.5 352.5,378.5 352.5,379.5C 337.847,390.929 322.18,392.429 305.5,384C 301.855,380.166 297.855,376.999 293.5,374.5C 293.5,373.5 293.5,372.5 293.5,371.5C 292.5,371.5 291.5,371.5 290.5,371.5C 290.5,370.5 290.5,369.5 290.5,368.5C 289.5,368.5 288.5,368.5 287.5,368.5C 285.833,365.833 284.167,363.167 282.5,360.5C 281.5,360.5 280.5,360.5 279.5,360.5C 279.5,359.5 279.5,358.5 279.5,357.5C 278.5,357.5 277.5,357.5 276.5,357.5C 274.946,354.271 272.613,351.604 269.5,349.5C 268.571,348.311 268.238,346.978 268.5,345.5 Z"/></g>
<g><path style="opacity:0.004" fill="#e5e6e5" d="M 720.5,357.5 C 723.137,359.154 722.803,359.654 719.5,359C 720.056,358.617 720.389,358.117 720.5,357.5 Z"/></g>
<g><path style="opacity:0.157" fill="#f6f6f6" d="M 546.5,328.5 C 547.492,328.328 548.158,328.662 548.5,329.5C 537.781,342.578 536.281,356.578 544,371.5C 557.207,388.454 573.374,391.954 592.5,382C 605.339,369.994 618.006,357.827 630.5,345.5C 630.762,346.978 630.429,348.311 629.5,349.5C 626.973,351.605 624.64,353.939 622.5,356.5C 621.675,357.386 620.675,357.719 619.5,357.5C 619.5,358.5 619.5,359.5 619.5,360.5C 618.5,360.5 617.5,360.5 616.5,360.5C 616.719,361.675 616.386,362.675 615.5,363.5C 613.696,365.98 611.363,367.647 608.5,368.5C 608.5,369.5 608.5,370.5 608.5,371.5C 607.5,371.5 606.5,371.5 605.5,371.5C 605.5,372.5 605.5,373.5 605.5,374.5C 604.5,374.5 603.5,374.5 602.5,374.5C 602.5,375.5 602.5,376.5 602.5,377.5C 580.394,394.886 559.894,393.219 541,372.5C 539.494,365.988 537.661,359.654 535.5,353.5C 537.768,347.353 539.601,341.02 541,334.5C 542.749,332.333 544.583,330.333 546.5,328.5 Z"/></g>
<g><path style="opacity:0.035" fill="#efefef" d="M 369.5,355.5 C 362.328,373.842 355.161,392.175 348,410.5C 344.967,430.932 353.133,444.765 372.5,452C 392.244,455.378 406.077,447.878 414,429.5C 459.061,319.649 503.727,209.649 548,99.5C 549.353,92.9032 549.02,86.2365 547,79.5C 534.062,57.357 516.229,52.357 493.5,64.5C 493.414,63.5041 493.748,62.6708 494.5,62C 508.977,54.3826 523.31,54.7159 537.5,63C 539.439,63.9078 540.439,65.4078 540.5,67.5C 541.5,67.5 542.5,67.5 543.5,67.5C 545.332,70.7466 547.165,74.08 549,77.5C 549.156,81.1341 550.156,84.4674 552,87.5C 552.577,91.888 552.244,96.2214 551,100.5C 549.287,105.507 547.62,110.507 546,115.5C 544.333,117.833 542.667,120.167 541,122.5C 539.555,129.097 537.555,135.43 535,141.5C 532.63,146.675 529.963,151.675 527,156.5C 525.503,163.318 523.503,169.985 521,176.5C 518.698,181.625 516.198,186.625 513.5,191.5C 512.526,193.743 512.192,196.076 512.5,198.5C 511.5,198.5 510.5,198.5 509.5,198.5C 509.662,200.527 509.495,202.527 509,204.5C 506.667,209.5 504.333,214.5 502,219.5C 501.667,221.5 501.333,223.5 501,225.5C 499.324,228.13 497.824,230.797 496.5,233.5C 490.355,248.83 484.522,264.163 479,279.5C 474.578,289.355 470.078,299.022 465.5,308.5C 462.204,320.891 457.371,332.557 451,343.5C 450,347.167 449,350.833 448,354.5C 444.504,362.36 440.838,370.026 437,377.5C 435.695,385.084 433.028,392.084 429,398.5C 422.989,412.539 417.156,426.873 411.5,441.5C 410.5,441.5 409.5,441.5 408.5,441.5C 408.5,442.5 408.5,443.5 408.5,444.5C 395.501,454.902 381.001,457.236 365,451.5C 360.63,448.926 356.463,446.26 352.5,443.5C 349.316,438.145 346.816,432.478 345,426.5C 344.333,422.167 344.333,417.833 345,413.5C 346.244,410.362 346.911,407.028 347,403.5C 350.683,396.081 354.349,388.748 358,381.5C 361.03,372.9 363.863,364.233 366.5,355.5C 367.5,355.5 368.5,355.5 369.5,355.5 Z"/></g>
<g><path style="opacity:0.004" fill="#e5e6e5" d="M 495.5,424.5 C 496.598,425.601 496.765,426.934 496,428.5C 495.51,427.207 495.343,425.873 495.5,424.5 Z"/></g>
<g><path style="opacity:0.004" fill="#e5e6e5" d="M 495.5,432.5 C 498.137,434.154 497.803,434.654 494.5,434C 495.056,433.617 495.389,433.117 495.5,432.5 Z"/></g>
<g><path style="opacity:0.004" fill="#e5e6e5" d="M 450.5,465.5 C 451.525,465.897 451.692,466.563 451,467.5C 450.536,466.906 450.369,466.239 450.5,465.5 Z"/></g>
<g><path style="opacity:0.004" fill="#fefffe" d="M 627.5,465.5 C 629.76,466.238 629.927,467.238 628,468.5C 627.517,467.552 627.351,466.552 627.5,465.5 Z"/></g>
<g><path style="opacity:0.004" fill="#fefffe" d="M 653.5,466.5 C 654.097,465.861 654.93,465.528 656,465.5C 659.478,465.761 659.978,466.761 657.5,468.5C 655.927,468.248 654.594,467.582 653.5,466.5 Z"/></g>
<g><path style="opacity:0.004" fill="#fefffe" d="M 627.5,473.5 C 628.598,474.601 628.765,475.934 628,477.5C 627.51,476.207 627.343,474.873 627.5,473.5 Z"/></g>
<g><path style="opacity:0.004" fill="#fefffe" d="M 595.5,474.5 C 597.359,474.461 598.692,475.294 599.5,477C 595.787,479.287 594.453,478.454 595.5,474.5 Z"/></g>
<g><path style="opacity:0.004" fill="#fefffe" d="M 588.5,477.5 C 589.833,478.167 589.833,478.167 588.5,477.5 Z"/></g>
<g><path style="opacity:0.004" fill="#fefffe" d="M 616.5,478.5 C 617.833,479.167 617.833,479.167 616.5,478.5 Z"/></g>
<g><path style="opacity:0.004" fill="#fdfdfd" d="M 581.5,480.5 C 585.905,480.7 586.405,482.033 583,484.5C 580.971,483.486 580.471,482.153 581.5,480.5 Z"/></g>
<g><path style="opacity:0.004" fill="#fefffe" d="M 551.5,492.5 C 552.833,493.167 552.833,493.167 551.5,492.5 Z"/></g>
<g><path style="opacity:0.004" fill="#fefffe" d="M 525.5,495.5 C 527.359,495.461 528.692,496.294 529.5,498C 525.787,500.287 524.453,499.454 525.5,495.5 Z"/></g>
<g><path style="opacity:0.004" fill="#fefffe" d="M 561.5,495.5 C 562.978,495.238 564.311,495.571 565.5,496.5C 564.833,496.833 564.167,497.167 563.5,497.5C 562.287,497.253 561.62,496.586 561.5,495.5 Z"/></g>
<g><path style="opacity:0.004" fill="#fdfdfd" d="M 536.5,496.5 C 541.536,497.505 541.536,498.838 536.5,500.5C 536.5,499.167 536.5,497.833 536.5,496.5 Z"/></g>
</svg>
